<?xml version="1.0" encoding="utf-8"?>
<!-- Generator: Adobe Illustrator 17.0.0, SVG Export Plug-In . SVG Version: 6.00 Build 0)  -->
<!DOCTYPE svg PUBLIC "-//W3C//DTD SVG 1.1//EN" "http://www.w3.org/Graphics/SVG/1.1/DTD/svg11.dtd">
<svg version="1.1" id="Capa_1" xmlns="http://www.w3.org/2000/svg" xmlns:xlink="http://www.w3.org/1999/xlink" x="0px" y="0px"
	 width="313.376px" height="157.034px" viewBox="0 0 313.376 157.034" enable-background="new 0 0 313.376 157.034"
	 xml:space="preserve">
<g>
	<path fill="#F7EAF6" d="M145.586,85.918c3.066,3.07,7.077,4.599,11.097,4.599c4.018,0,8.031-1.529,11.101-4.599l44.409-44.406
		c6.133-6.128,6.133-16.078,0-22.206v0.009c-6.129-6.132-16.076-6.132-22.201,0l-33.308,33.299l-33.298-33.299
		c-6.135-6.132-16.077-6.132-22.201,0v-0.009c-6.135,6.128-6.135,16.078,0,22.206L145.586,85.918z"/>
	<path fill="#F7EAF6" d="M282.308,0c-0.042,43.368-22.56,85.532-62.814,108.773C159.423,143.463,82.6,122.879,47.916,62.802
		C36.474,42.984,31.051,21.346,31.071,0H-0.341C-0.367,26.685,6.414,53.733,20.72,78.503
		c43.357,75.095,139.384,100.826,214.474,57.47c50.324-29.05,78.475-81.76,78.524-135.973L282.308,0L282.308,0z"/>
</g>
</svg>
