<?xml version="1.0" encoding="utf-8"?>
<!-- Generator: Adobe Illustrator 17.0.0, SVG Export Plug-In . SVG Version: 6.00 Build 0)  -->
<!DOCTYPE svg PUBLIC "-//W3C//DTD SVG 1.1//EN" "http://www.w3.org/Graphics/SVG/1.1/DTD/svg11.dtd">
<svg version="1.1" id="Layer_1" xmlns="http://www.w3.org/2000/svg" xmlns:xlink="http://www.w3.org/1999/xlink" x="0px" y="0px"
	 width="293px" height="123px" viewBox="0 0 293 123" enable-background="new 0 0 293 123" xml:space="preserve">
<g>
	<path fill="#C1A3B6" d="M178.305,82.061c-2.252,0-4.007-0.624-5.266-1.872s-1.889-3.177-1.889-5.784V51.669h-4.781
		c-0.246,0-0.446-0.066-0.602-0.2c-0.156-0.134-0.234-0.323-0.234-0.568v-1.237l5.684-0.401l0.802-11.901
		c0.044-0.201,0.134-0.379,0.268-0.535s0.323-0.234,0.568-0.234h1.504v12.705h10.498v2.373H174.36v22.568
		c0,0.914,0.117,1.699,0.351,2.356c0.234,0.658,0.557,1.198,0.97,1.622c0.412,0.423,0.897,0.735,1.454,0.936
		c0.557,0.201,1.159,0.301,1.806,0.301c0.802,0,1.493-0.116,2.073-0.351c0.579-0.234,1.081-0.49,1.504-0.77
		c0.423-0.278,0.769-0.534,1.037-0.769c0.267-0.234,0.479-0.351,0.635-0.351c0.178,0,0.356,0.111,0.535,0.334l0.869,1.404
		c-0.847,0.936-1.922,1.688-3.226,2.257C181.063,81.776,179.709,82.061,178.305,82.061z"/>
	<path fill="#C1A3B6" d="M193.989,56.283c0.513-1.359,1.098-2.568,1.755-3.628c0.657-1.058,1.415-1.955,2.273-2.691
		c0.858-0.735,1.816-1.298,2.875-1.688c1.058-0.391,2.234-0.586,3.527-0.586c0.691,0,1.371,0.062,2.04,0.185
		c0.669,0.122,1.259,0.34,1.772,0.651l-0.268,2.207c-0.112,0.356-0.323,0.535-0.635,0.535c-0.267,0-0.674-0.078-1.22-0.234
		c-0.546-0.155-1.265-0.234-2.156-0.234c-1.293,0-2.436,0.195-3.427,0.585c-0.992,0.391-1.884,0.976-2.674,1.756
		c-0.792,0.78-1.483,1.744-2.073,2.892c-0.591,1.148-1.131,2.469-1.621,3.962v21.531h-3.21V48.259h1.705
		c0.379,0,0.646,0.079,0.803,0.234c0.156,0.156,0.256,0.424,0.301,0.803L193.989,56.283z"/>
	<path fill="#C1A3B6" d="M213.406,63.571v0.636c0,2.496,0.29,4.692,0.87,6.586c0.579,1.896,1.404,3.483,2.474,4.765
		c1.07,1.282,2.362,2.246,3.878,2.892c1.516,0.647,3.209,0.97,5.082,0.97c1.671,0,3.12-0.184,4.346-0.552
		c1.226-0.367,2.257-0.779,3.093-1.236s1.499-0.87,1.989-1.237c0.49-0.368,0.847-0.552,1.07-0.552c0.29,0,0.512,0.111,0.668,0.334
		l0.87,1.07c-0.535,0.669-1.243,1.293-2.123,1.872c-0.881,0.58-1.861,1.075-2.942,1.488c-1.081,0.412-2.24,0.741-3.477,0.985
		c-1.237,0.245-2.479,0.368-3.728,0.368c-2.273,0-4.347-0.396-6.219-1.187c-1.873-0.791-3.477-1.944-4.814-3.461
		c-1.337-1.516-2.369-3.371-3.093-5.566c-0.725-2.195-1.086-4.708-1.086-7.539c0-2.385,0.339-4.586,1.02-6.604
		c0.68-2.017,1.66-3.755,2.942-5.215c1.281-1.46,2.853-2.603,4.714-3.428c1.861-0.824,3.973-1.236,6.336-1.236
		c1.872,0,3.611,0.323,5.215,0.969c1.605,0.647,2.998,1.589,4.179,2.825c1.181,1.237,2.112,2.759,2.792,4.564
		c0.68,1.805,1.02,3.878,1.02,6.218c0,0.491-0.067,0.825-0.201,1.004c-0.134,0.178-0.357,0.267-0.668,0.267H213.406z
		 M235.605,61.532c0-1.783-0.25-3.382-0.752-4.798c-0.501-1.415-1.209-2.613-2.123-3.594c-0.914-0.98-2.001-1.733-3.26-2.257
		c-1.26-0.523-2.647-0.786-4.163-0.786c-1.716,0-3.254,0.268-4.614,0.803c-1.36,0.535-2.536,1.304-3.527,2.307
		s-1.789,2.207-2.39,3.611c-0.602,1.404-1.003,2.976-1.204,4.714H235.605z"/>
	<path fill="#C1A3B6" d="M247.122,63.571v0.636c0,2.496,0.29,4.692,0.87,6.586c0.579,1.896,1.404,3.483,2.474,4.765
		c1.07,1.282,2.362,2.246,3.878,2.892c1.516,0.647,3.209,0.97,5.082,0.97c1.671,0,3.12-0.184,4.346-0.552
		c1.226-0.367,2.257-0.779,3.093-1.236s1.499-0.87,1.989-1.237c0.49-0.368,0.847-0.552,1.07-0.552c0.29,0,0.512,0.111,0.668,0.334
		l0.87,1.07c-0.535,0.669-1.243,1.293-2.123,1.872c-0.881,0.58-1.861,1.075-2.942,1.488c-1.081,0.412-2.24,0.741-3.477,0.985
		c-1.237,0.245-2.479,0.368-3.728,0.368c-2.273,0-4.347-0.396-6.219-1.187c-1.873-0.791-3.477-1.944-4.814-3.461
		c-1.337-1.516-2.369-3.371-3.093-5.566c-0.725-2.195-1.086-4.708-1.086-7.539c0-2.385,0.339-4.586,1.02-6.604
		c0.68-2.017,1.66-3.755,2.942-5.215c1.281-1.46,2.853-2.603,4.714-3.428c1.861-0.824,3.973-1.236,6.336-1.236
		c1.872,0,3.611,0.323,5.215,0.969c1.605,0.647,2.998,1.589,4.179,2.825c1.181,1.237,2.112,2.759,2.792,4.564
		c0.68,1.805,1.02,3.878,1.02,6.218c0,0.491-0.067,0.825-0.201,1.004c-0.134,0.178-0.357,0.267-0.668,0.267H247.122z
		 M269.321,61.532c0-1.783-0.25-3.382-0.752-4.798c-0.501-1.415-1.209-2.613-2.123-3.594c-0.914-0.98-2.001-1.733-3.26-2.257
		c-1.26-0.523-2.647-0.786-4.163-0.786c-1.716,0-3.254,0.268-4.614,0.803c-1.36,0.535-2.536,1.304-3.527,2.307
		s-1.789,2.207-2.39,3.611c-0.602,1.404-1.003,2.976-1.204,4.714H269.321z"/>
	<path fill="#8E4A73" d="M39.461,46.765c2.068,0.127,3.84,0.549,5.318,1.267c1.477,0.718,2.701,1.625,3.672,2.723
		c0.971,1.098,1.688,2.364,2.153,3.799c0.464,1.436,0.697,2.935,0.697,4.495c0,0.423-0.022,0.854-0.063,1.298
		c-0.042,0.443-0.106,0.877-0.19,1.298c1.308-0.59,2.458-1.308,3.451-2.152c0.991-0.844,1.762-1.878,2.311-3.103
		c0.211-0.464,0.591-0.812,1.14-1.045c0.548-0.231,1.097-0.348,1.646-0.348c0.59,0,1.108,0.148,1.551,0.442
		c0.443,0.296,0.559,0.739,0.348,1.33c-0.972,2.364-2.501,4.242-4.59,5.635c-2.09,1.394-4.401,2.513-6.933,3.356
		c-0.592,1.52-1.352,2.966-2.28,4.337c-0.929,1.372-2.026,2.596-3.292,3.673c-1.266,1.076-2.67,1.974-4.21,2.69
		c-1.542,0.719-3.197,1.183-4.97,1.393c-0.887,0.127-1.731,0.19-2.533,0.19c-1.604,0-2.871-0.19-3.799-0.57
		c0.464,3.885,1.171,7.683,2.121,11.397c0.95,3.714,2.289,7.007,4.021,9.877c0.548,0.887,0.643,1.583,0.285,2.09
		c-0.359,0.507-1.003,0.76-1.931,0.76c-0.591,0-1.32-0.158-2.184-0.475c-0.866-0.316-1.657-0.729-2.375-1.234
		c-1.436-1.183-2.639-3.04-3.609-5.572c-0.972-2.533-1.741-5.436-2.311-8.706c-0.57-3.271-0.981-6.712-1.235-10.32
		c-0.253-3.609-0.38-7.081-0.38-10.416c0-2.194,0.042-4.284,0.126-6.269c0.085-1.983,0.19-3.756,0.317-5.318
		c0.126-1.562,0.264-2.85,0.411-3.862c0.148-1.013,0.285-1.667,0.412-1.963c0.38-0.717,0.907-1.244,1.583-1.583
		c0.675-0.337,1.33-0.506,1.963-0.506c0.801,0,1.509,0.295,2.121,0.886c0.611,0.592,0.833,1.479,0.665,2.659l-0.253,2.533
		c0.464-0.634,1.023-1.245,1.678-1.836c0.654-0.591,1.425-1.108,2.311-1.552c0.887-0.443,1.899-0.791,3.04-1.045
		C36.802,46.765,38.068,46.681,39.461,46.765z M28.127,63.924c0,0.675,0,1.361,0,2.058s0.021,1.403,0.063,2.121
		c1.308-0.971,2.997-1.688,5.065-2.153c2.068-0.464,4.284-0.928,6.648-1.393c0.717-0.127,1.414-0.242,2.089-0.349
		c0.675-0.104,1.371-0.242,2.089-0.411l0.19-0.507c0.126-1.055,0.19-2.089,0.19-3.103c0-2.954-0.676-5.287-2.026-6.996
		c-1.351-1.71-3.292-2.459-5.825-2.248c-1.098,0.085-2.08,0.443-2.944,1.076c-0.866,0.634-1.615,1.384-2.248,2.248
		c-0.633,0.865-1.182,1.772-1.646,2.723c-0.465,0.95-0.845,1.784-1.14,2.501c-0.085,0.212-0.169,0.411-0.253,0.602
		c-0.085,0.189-0.169,0.37-0.253,0.538V63.924z M35.599,74.371c0.717-0.169,1.403-0.476,2.058-0.919
		c0.654-0.442,1.276-0.97,1.868-1.583c0.59-0.611,1.14-1.275,1.646-1.994c0.506-0.717,0.95-1.435,1.33-2.152l-1.963,0.38
		c-1.393,0.296-2.691,0.58-3.894,0.854c-1.203,0.275-2.248,0.581-3.134,0.918c-0.887,0.339-1.583,0.729-2.09,1.172
		c-0.506,0.442-0.76,0.96-0.76,1.551c0,0.465,0.243,0.918,0.729,1.361c0.484,0.443,1.255,0.665,2.311,0.665
		C34.289,74.624,34.923,74.54,35.599,74.371z"/>
	<path fill="#8E4A73" d="M63.964,24.034c0.844-0.887,1.762-1.541,2.754-1.963c0.991-0.422,1.995-0.634,3.007-0.634
		c0.928,0,1.836,0.181,2.723,0.539c0.887,0.358,1.678,0.854,2.375,1.487c0.696,0.634,1.245,1.404,1.646,2.312
		c0.401,0.908,0.602,1.89,0.602,2.944c-0.042,4.644-0.506,8.938-1.393,12.885c-0.887,3.947-1.974,7.524-3.261,10.731
		c-1.288,3.209-2.649,6.006-4.083,8.39c-1.436,2.386-2.681,4.316-3.736,5.794c0.168,2.152,0.412,3.979,0.728,5.477
		c0.316,1.499,0.633,2.713,0.95,3.641c0.317,0.929,0.602,1.604,0.855,2.026c0.253,0.423,0.421,0.633,0.506,0.633
		c0.591-0.126,1.361-0.737,2.311-1.836c0.95-1.097,1.952-2.427,3.008-3.989c1.054-1.561,2.121-3.238,3.197-5.033
		c1.077-1.794,2.047-3.482,2.913-5.065c0.865-1.583,1.583-2.923,2.153-4.021s0.875-1.73,0.918-1.899
		c0.042-0.338,0.253-0.611,0.633-0.823c0.38-0.211,0.792-0.316,1.234-0.316c0.443,0,0.865,0.105,1.267,0.316
		c0.401,0.212,0.686,0.57,0.855,1.076c-0.043,0.592-0.328,1.53-0.855,2.817c-0.528,1.288-1.203,2.734-2.026,4.338
		c-0.823,1.604-1.731,3.282-2.723,5.033c-0.992,1.752-1.942,3.378-2.849,4.876c-0.908,1.498-1.72,2.796-2.438,3.894
		c-0.718,1.098-1.225,1.795-1.52,2.09c-0.887,0.845-1.879,1.487-2.976,1.931c-1.098,0.443-2.216,0.665-3.356,0.665
		c-0.971,0-1.889-0.169-2.754-0.507c-0.866-0.337-1.594-0.823-2.185-1.456c-1.14-1.308-2.132-2.817-2.976-4.527
		c-0.845-1.709-1.53-3.546-2.058-5.509c-0.528-1.963-0.929-4.01-1.203-6.142c-0.275-2.131-0.412-4.294-0.412-6.489
		c0-3.63,0.263-7.26,0.792-10.891c0.527-3.63,1.192-6.975,1.995-10.036c0.801-3.06,1.688-5.719,2.659-7.978
		C62.212,26.557,63.119,24.963,63.964,24.034z M64.407,61.897c1.14-2.237,2.099-4.527,2.881-6.87
		c0.781-2.343,1.435-4.643,1.963-6.901c0.527-2.258,0.939-4.433,1.234-6.521c0.295-2.09,0.517-3.989,0.665-5.699
		c0.147-1.709,0.242-3.187,0.285-4.432c0.042-1.244,0.084-2.163,0.127-2.754v-0.57c0.042-2.49-0.232-3.735-0.823-3.735
		c-0.338,0-0.708,0.391-1.108,1.171c-0.402,0.782-0.771,1.848-1.108,3.197c-0.676,3.082-1.267,6.09-1.773,9.023
		c-0.507,2.934-0.94,5.729-1.298,8.389c-0.359,2.66-0.623,5.14-0.791,7.44c-0.169,2.301-0.253,4.337-0.253,6.109V61.897z"/>
	<path fill="#8E4A73" d="M97.869,44.391c0.231-0.317,0.548-0.58,0.95-0.792c0.401-0.211,0.844-0.39,1.33-0.538
		c0.485-0.147,0.981-0.222,1.488-0.222c0.844,0,1.54,0.18,2.089,0.538c0.548,0.359,0.823,1.003,0.823,1.932
		c-0.085,1.098-0.212,2.543-0.38,4.337c-0.169,1.795-0.38,3.768-0.633,5.92c-0.212,1.646-0.402,3.355-0.57,5.129
		c-0.169,1.772-0.338,3.524-0.506,5.255c-0.169,1.731-0.296,3.419-0.38,5.065c-0.085,1.646-0.126,3.166-0.126,4.559
		c0,2.153,0.137,3.895,0.412,5.224c0.274,1.33,0.686,2.016,1.235,2.059c0.38-0.127,0.812-0.613,1.298-1.457
		c0.485-0.844,1.002-1.92,1.551-3.229c0.548-1.309,1.118-2.765,1.709-4.369c0.591-1.604,1.149-3.207,1.678-4.812
		c0.527-1.604,1.023-3.144,1.488-4.622c0.464-1.477,0.865-2.764,1.203-3.862c0.084-0.421,0.211-0.844,0.38-1.266
		c0.168-0.422,0.317-0.844,0.443-1.267c0.127-0.295,0.421-0.484,0.887-0.57c0.464-0.084,0.928-0.073,1.393,0.032
		c0.464,0.105,0.865,0.264,1.203,0.475c0.337,0.212,0.443,0.443,0.317,0.696c-0.169,0.212-0.317,0.823-0.443,1.837
		c-0.253,1.098-0.592,2.543-1.013,4.337c-0.422,1.795-0.94,3.704-1.551,5.729c-0.612,2.026-1.33,4.063-2.153,6.11
		c-0.823,2.048-1.752,3.884-2.786,5.509c-1.035,1.624-2.185,2.923-3.451,3.894c-1.266,0.971-2.638,1.414-4.115,1.33
		c-1.309-0.085-2.396-0.592-3.261-1.52c-0.866-0.929-1.551-2.143-2.058-3.641c-0.506-1.498-0.866-3.239-1.076-5.224
		c-0.212-1.983-0.317-4.053-0.317-6.205c0-2.153,0.063-4.306,0.19-6.458c-0.718,1.604-1.531,3.261-2.438,4.97
		c-0.908,1.71-1.879,3.271-2.913,4.686c-1.035,1.415-2.111,2.586-3.229,3.514c-1.119,0.93-2.248,1.436-3.388,1.521
		c-2.364-0.085-4.031-0.823-5.002-2.217c-0.97-1.393-1.456-3.187-1.456-5.382c0-1.604,0.158-3.313,0.475-5.129
		c0.317-1.813,0.644-3.672,0.981-5.571c0.38-1.773,0.707-3.492,0.981-5.16c0.274-1.667,0.412-3.176,0.412-4.527
		c0-1.435-0.212-2.617-0.633-3.546h-0.126c-0.464-0.844-0.337-1.488,0.38-1.931c0.717-0.443,1.625-0.665,2.723-0.665
		c0.928,0,1.836,0.2,2.723,0.602c0.886,0.401,1.371,1.003,1.456,1.805c0.337,1.14,0.507,2.364,0.507,3.672
		c0,1.773-0.19,3.662-0.57,5.667s-0.782,3.957-1.203,5.856c-0.338,1.562-0.624,3.019-0.855,4.369
		c-0.232,1.352-0.348,2.491-0.348,3.419c0,1.309,0.295,1.984,0.887,2.026c0.253-0.084,0.686-0.527,1.298-1.33
		c0.611-0.801,1.308-1.846,2.089-3.134c0.781-1.287,1.604-2.723,2.469-4.306c0.865-1.583,1.709-3.207,2.533-4.875
		c0.823-1.667,1.583-3.303,2.279-4.907c0.697-1.604,1.256-3.039,1.678-4.306c0.126-0.887,0.242-1.646,0.348-2.279
		c0.105-0.633,0.2-1.118,0.285-1.456c0-0.084,0.01-0.137,0.032-0.158c0.021-0.021,0.032-0.053,0.032-0.096v-0.126
		C97.521,45.014,97.637,44.707,97.869,44.391z"/>
	<path fill="#8E4A73" d="M138.929,75.953c0.337,0.38,0.507,0.729,0.507,1.045s-0.138,0.592-0.412,0.823
		c-0.275,0.232-0.644,0.401-1.108,0.507c-0.465,0.105-0.972,0.158-1.52,0.158c-0.845,0-1.71-0.18-2.596-0.538
		s-1.625-0.981-2.216-1.868c-0.465-1.52-0.76-3.07-0.886-4.653s-0.232-3.112-0.316-4.591c-0.042-1.055-0.095-2.036-0.158-2.944
		c-0.063-0.907-0.18-1.698-0.349-2.374c-0.169-0.675-0.412-1.192-0.728-1.552c-0.316-0.357-0.75-0.517-1.298-0.475
		c-0.38,0.043-0.972,0.56-1.773,1.551c-0.802,0.993-1.657,2.238-2.564,3.736c-0.908,1.499-1.784,3.134-2.627,4.907
		c-0.845,1.772-1.499,3.44-1.963,5.002c0,1.688,0.084,2.701,0.253,3.039c0.464,1.098,0.358,2.079-0.317,2.944
		c-0.676,0.864-1.688,1.298-3.039,1.298c-0.465,0-0.908-0.043-1.33-0.127c-0.422-0.085-0.866-0.232-1.33-0.443
		c-0.38-0.168-0.708-0.579-0.981-1.234c-0.275-0.654-0.496-1.477-0.665-2.47c-0.168-0.991-0.294-2.109-0.38-3.355
		c-0.084-1.244-0.126-2.564-0.126-3.957c0-1.857,0.063-3.768,0.19-5.73s0.296-3.809,0.506-5.54c0.211-1.73,0.443-3.271,0.697-4.622
		c0.253-1.351,0.485-2.343,0.696-2.976c-0.338-0.127-0.475-0.285-0.412-0.476c0.063-0.189,0.263-0.38,0.602-0.569
		c0.337-0.19,0.801-0.349,1.393-0.475c0.591-0.127,1.266-0.19,2.026-0.19c0.887,0,1.667,0.138,2.343,0.411
		c0.675,0.275,0.971,0.792,0.887,1.552c0,0.127-0.022,0.37-0.063,0.729c-0.042,0.358-0.085,0.791-0.126,1.298
		c-0.085,1.352-0.19,3.07-0.317,5.16c-0.126,2.089-0.232,4.253-0.316,6.49c0.465-1.182,1.005-2.375,1.62-3.578
		s1.303-2.3,2.065-3.292c0.762-0.991,1.588-1.805,2.478-2.438c0.889-0.634,1.843-1.014,2.86-1.14c1.863,0,3.377,0.274,4.542,0.822
		c1.166,0.55,2.076,1.267,2.732,2.153c0.656,0.887,1.133,1.91,1.43,3.07c0.297,1.162,0.487,2.396,0.572,3.704
		c0.758-2.109,1.684-4.305,2.778-6.585c1.094-2.279,2.272-4.368,3.535-6.268s2.588-3.472,3.977-4.718
		c1.389-1.244,2.756-1.867,4.104-1.867c1.389,0,2.524,0.264,3.409,0.791c0.883,0.528,1.588,1.267,2.114,2.216
		c0.526,0.95,0.895,2.08,1.105,3.388c0.209,1.309,0.315,2.723,0.315,4.242c0,1.942-0.117,3.969-0.348,6.078
		c-0.232,2.111-0.475,4.18-0.728,6.205c-0.253,1.815-0.475,3.546-0.665,5.192s-0.285,3.103-0.285,4.369
		c0,1.352,0.116,2.417,0.349,3.197c0.231,0.78,0.706,1.213,1.424,1.298c0.421,0,0.896-0.349,1.425-1.045
		c0.527-0.696,1.055-1.635,1.583-2.817c0.527-1.182,1.076-2.532,1.646-4.052c0.57-1.521,3.967,1.52,0.697,6.331
		c-3.272,4.812-6.427,6.816-9.466,6.016c-0.887-0.254-1.625-0.676-2.216-1.267c-0.592-0.592-1.056-1.33-1.393-2.216
		c-0.338-0.887-0.581-1.9-0.728-3.04c-0.148-1.14-0.222-2.343-0.222-3.608c0-1.773,0.105-3.662,0.317-5.667
		c0.21-2.005,0.421-3.979,0.633-5.92c0.211-1.688,0.401-3.313,0.57-4.876c0.168-1.561,0.253-2.954,0.253-4.179
		c0-1.351-0.117-2.427-0.348-3.229c-0.232-0.802-0.644-1.225-1.235-1.267c-0.465-0.042-1.056,0.285-1.773,0.981
		c-0.718,0.696-1.488,1.646-2.311,2.849c-0.823,1.203-1.657,2.597-2.501,4.18c-0.845,1.582-1.625,3.219-2.343,4.906
		c-0.718,1.689-1.33,3.367-1.836,5.034c-0.507,1.668-0.845,3.219-1.013,4.653c0,0.043-0.011,0.063-0.032,0.063
		c-0.021,0-0.032,0.021-0.032,0.063c0.084,0.338,0.179,0.645,0.285,0.918c0.105,0.275,0.242,0.538,0.412,0.792
		C138.866,75.933,138.886,75.953,138.929,75.953z"/>
</g>
</svg>
