<?xml version="1.0" encoding="utf-8"?>
<!-- Generator: Adobe Illustrator 17.0.0, SVG Export Plug-In . SVG Version: 6.00 Build 0)  -->
<!DOCTYPE svg PUBLIC "-//W3C//DTD SVG 1.1//EN" "http://www.w3.org/Graphics/SVG/1.1/DTD/svg11.dtd">
<svg version="1.1" id="Capa_1" xmlns="http://www.w3.org/2000/svg" xmlns:xlink="http://www.w3.org/1999/xlink" x="0px" y="0px"
	 width="20px" height="20px" viewBox="0 0 20 20" enable-background="new 0 0 20 20" xml:space="preserve">
<g>
	<g>
		<g>
			<circle fill="#FFFFFF" cx="13.2" cy="9.219" r="0.391"/>
		</g>
	</g>
	<g>
		<g>
			<path fill="#FFFFFF" d="M13.267,10.892c-0.213-0.032-0.412,0.116-0.444,0.329c-0.107,0.721-0.716,1.319-1.63,1.599
				c-0.977,0.3-2.333,0.199-3.16-0.701c-0.146-0.159-0.393-0.169-0.552-0.024c-0.159,0.146-0.169,0.393-0.024,0.552
				c0.479,0.521,1.129,0.877,1.881,1.028c0.265,0.053,0.541,0.08,0.818,0.08c0.428,0,0.86-0.063,1.266-0.188
				c1.209-0.371,2.022-1.206,2.174-2.232C13.628,11.123,13.48,10.924,13.267,10.892z"/>
		</g>
	</g>
	<g>
		<g>
			<path fill="#FFFFFF" d="M18.696,7.438c-0.71-0.823-1.69-1.357-2.869-1.571c1.129-0.762,2.103-1.521,2.798-2.182
				c1.059-1.009,1.414-1.718,1.118-2.231c-0.33-0.572-1.282-0.568-2.997,0.013c-1.449,0.49-3.254,1.342-5.083,2.398
				c-0.316,0.182-0.629,0.369-0.935,0.557C10.5,3.779,10.65,3.047,11.151,2.411c0.375-0.476,0.459-1.08,0.219-1.577
				C11.117,0.313,10.564,0.001,9.889,0H9.871C7.488,0,5.157,0.94,3.307,2.648C1.456,4.357,0.322,6.62,0.116,9.02
				c-0.249,2.89,0.675,5.637,2.601,7.736C4.609,18.818,7.291,20,10.075,20c1.499,0,2.907-0.274,4.183-0.815
				c1.167-0.495,2.204-1.201,3.081-2.1c0.813-0.833,1.454-1.792,1.906-2.851c0.429-1.007,0.664-2.075,0.679-3.087
				C19.945,9.676,19.52,8.393,18.696,7.438z M10.773,5.312c0.413-0.261,0.844-0.521,1.28-0.772c1.691-0.976,3.375-1.78,4.741-2.264
				c1.504-0.533,2.12-0.498,2.264-0.429c-0.012,0.091-0.125,0.495-1.112,1.404c-0.824,0.759-2.028,1.652-3.389,2.514
				c-0.43,0.273-0.878,0.543-1.331,0.805c-0.624,0.36-1.248,0.697-1.861,1.006c-0.122-0.357-0.279-0.703-0.469-1.033
				c-0.185-0.32-0.399-0.62-0.638-0.898C10.425,5.533,10.598,5.422,10.773,5.312z M10.656,7.922
				C9.553,8.445,8.541,8.844,7.733,9.075C7.69,8.873,7.616,8.678,7.511,8.496c-0.099-0.172-0.224-0.327-0.369-0.46
				C7.748,7.452,8.6,6.776,9.602,6.084c0.233,0.26,0.439,0.545,0.615,0.85C10.4,7.248,10.546,7.58,10.656,7.922z M19.142,11.136
				c-0.056,3.887-3.538,8.082-9.067,8.082c-2.566,0-5.039-1.09-6.783-2.991c-1.776-1.936-2.628-4.472-2.398-7.141
				c0.394-4.58,4.421-8.305,8.977-8.305h0.018c0.374,0.001,0.657,0.144,0.778,0.393c0.111,0.229,0.063,0.511-0.129,0.753
				c-0.704,0.893-0.881,1.99-0.483,2.916C9.845,4.978,9.639,5.114,9.44,5.248C9.439,5.249,9.438,5.25,9.437,5.25
				C8.195,6.088,7.146,6.922,6.448,7.624C5.919,7.443,5.338,7.496,4.843,7.781c-0.812,0.469-1.877,2.653-2.083,3.087
				c-0.055,0.116-0.049,0.252,0.015,0.363c0.064,0.111,0.179,0.184,0.307,0.194c0.216,0.017,0.829,0.062,1.511,0.062
				c0.828,0,1.758-0.065,2.203-0.322c0.482-0.278,0.816-0.743,0.932-1.277c0.958-0.251,2.21-0.743,3.565-1.404
				c0.759-0.37,1.541-0.786,2.322-1.236c0.396-0.229,0.788-0.465,1.169-0.703c0.002,0,0.005,0,0.007,0.001
				C18.046,6.637,19.173,8.977,19.142,11.136z M6.99,9.546c-0.025,0.393-0.243,0.745-0.584,0.941
				c-0.369,0.213-1.638,0.242-2.68,0.194c0.479-0.926,1.139-2.011,1.509-2.224c0.349-0.202,0.771-0.21,1.129-0.024
				c0.197,0.102,0.36,0.259,0.471,0.452C6.951,9.087,7.004,9.315,6.99,9.546z"/>
		</g>
	</g>
	<g>
		<g>
			<path fill="#FFFFFF" d="M6.95,2.416c-0.862,0-1.562,0.701-1.562,1.562S6.089,5.541,6.95,5.541S8.513,4.84,8.513,3.978
				S7.812,2.416,6.95,2.416z M6.95,4.759c-0.431,0-0.781-0.35-0.781-0.781s0.35-0.781,0.781-0.781s0.781,0.35,0.781,0.781
				S7.381,4.759,6.95,4.759z"/>
		</g>
	</g>
	<g>
		<g>
			<path fill="#FFFFFF" d="M4.997,12.912c-0.862,0-1.562,0.701-1.562,1.562c0,0.862,0.701,1.562,1.562,1.562
				s1.562-0.701,1.562-1.562C6.559,13.613,5.859,12.912,4.997,12.912z M4.997,15.256c-0.431,0-0.781-0.35-0.781-0.781
				c0-0.431,0.35-0.781,0.781-0.781s0.781,0.35,0.781,0.781C5.778,14.905,5.428,15.256,4.997,15.256z"/>
		</g>
	</g>
	<g>
		<g>
			<path fill="#FFFFFF" d="M8.903,15.256c-0.862,0-1.562,0.701-1.562,1.562s0.701,1.562,1.562,1.562s1.562-0.701,1.562-1.562
				S9.765,15.256,8.903,15.256z M8.903,17.6c-0.431,0-0.781-0.35-0.781-0.781s0.35-0.781,0.781-0.781s0.781,0.35,0.781,0.781
				S9.334,17.6,8.903,17.6z"/>
		</g>
	</g>
	<g>
		<g>
			<path fill="#FFFFFF" d="M13.591,14.475c-0.862,0-1.562,0.701-1.562,1.562s0.701,1.562,1.562,1.562s1.562-0.701,1.562-1.562
				S14.452,14.475,13.591,14.475z M13.591,16.818c-0.431,0-0.781-0.35-0.781-0.781s0.35-0.781,0.781-0.781s0.781,0.35,0.781,0.781
				S14.021,16.818,13.591,16.818z"/>
		</g>
	</g>
	<g>
		<g>
			<path fill="#FFFFFF" d="M16.716,10.568c-0.862,0-1.562,0.701-1.562,1.562c0,0.862,0.701,1.562,1.562,1.562
				c0.862,0,1.562-0.701,1.562-1.562C18.278,11.269,17.577,10.568,16.716,10.568z M16.716,12.912c-0.431,0-0.781-0.35-0.781-0.781
				c0-0.431,0.35-0.781,0.781-0.781c0.431,0,0.781,0.35,0.781,0.781C17.497,12.562,17.146,12.912,16.716,12.912z"/>
		</g>
	</g>
</g>
</svg>
