<?xml version="1.0" encoding="utf-8"?>
<!-- Generator: Adobe Illustrator 17.0.0, SVG Export Plug-In . SVG Version: 6.00 Build 0)  -->
<!DOCTYPE svg PUBLIC "-//W3C//DTD SVG 1.1//EN" "http://www.w3.org/Graphics/SVG/1.1/DTD/svg11.dtd">
<svg version="1.1" id="Layer_1" xmlns="http://www.w3.org/2000/svg" xmlns:xlink="http://www.w3.org/1999/xlink" x="0px" y="0px"
	 width="475.476px" height="475.476px" viewBox="0 0 475.476 475.476" enable-background="new 0 0 475.476 475.476"
	 xml:space="preserve">
<circle fill="#FFFFFF" cx="848.958" cy="199.49" r="118.494"/>
<circle fill="#FFFFFF" cx="848.958" cy="199.49" r="82.824"/>
<g>
	<circle fill="#FFFFFF" cx="210.673" cy="207.204" r="82.824"/>
	<path fill="#FFFFFF" d="M452.476,0H23C10.297,0,0,10.297,0,23v429.476c0,12.703,10.297,23,23,23h429.476c12.703,0,23-10.297,23-23
		V23C475.476,10.297,465.179,0,452.476,0z M385.301,381.832c-6.996,6.996-18.339,6.996-25.335,0l-79.126-79.126
		c-46.37,34.158-111.987,30.254-153.956-11.715c-46.275-46.275-46.275-121.301,0-167.576c46.275-46.275,121.301-46.275,167.576,0
		c41.969,41.969,45.873,107.586,11.715,153.956l79.126,79.126C392.297,363.494,392.297,374.836,385.301,381.832z"/>
</g>
<path fill="#FFFFFF" d="M-166.492,452.476c0,12.703-10.297,23-23,23h-429.476c-12.703,0-23-10.297-23-23V23
	c0-12.703,10.297-23,23-23h429.476c12.703,0,23,10.297,23,23V452.476z"/>
<path fill="#FFFFFF" d="M-347.507,123.416c-46.275-46.275-121.301-46.275-167.576,0c-46.275,46.275-46.275,121.301,0,167.576
	c46.275,46.275,121.301,46.275,167.576,0C-301.232,244.717-301.232,169.691-347.507,123.416z M-489.861,265.769
	c-32.345-32.345-32.345-84.786,0-117.131c32.345-32.345,84.786-32.345,117.131,0c32.345,32.345,32.345,84.786,0,117.131
	C-405.075,298.114-457.516,298.114-489.861,265.769z"/>
<path fill="#FFFFFF" d="M-256.667,381.832c-6.996,6.996-18.339,6.996-25.335,0l-88.454-88.454c-6.996-6.996-6.996-18.339,0-25.335
	l0,0c6.996-6.996,18.339-6.996,25.335,0l88.454,88.454C-249.671,363.494-249.671,374.836-256.667,381.832L-256.667,381.832z"/>
</svg>
