<?xml version="1.0" encoding="utf-8"?>
<!-- Generator: Adobe Illustrator 17.0.0, SVG Export Plug-In . SVG Version: 6.00 Build 0)  -->
<!DOCTYPE svg PUBLIC "-//W3C//DTD SVG 1.1//EN" "http://www.w3.org/Graphics/SVG/1.1/DTD/svg11.dtd">
<svg version="1.1" id="Layer_1" xmlns="http://www.w3.org/2000/svg" xmlns:xlink="http://www.w3.org/1999/xlink" x="0px" y="0px"
	 width="1200px" height="2000px" viewBox="0 0 1200 2000" enable-background="new 0 0 1200 2000" xml:space="preserve">
<path fill="#F769A2" stroke="#F769A2" stroke-width="1.51" d="M637.956,1110.431l132.617,5.263L581.12,934.661L637.956,1110.431z"/>
<path fill="#F671A4" stroke="#F671A4" stroke-width="1.51" d="M770.573,1115.694L877.93,970.446l-296.81-35.786L770.573,1115.694z"
	/>
<path fill="#F263A1" stroke="#F263A1" stroke-width="1.51" d="M877.93,970.446l-265.235-133.67l-31.576,97.884L877.93,970.446z"/>
<path fill="#F16EA5" stroke="#F16EA5" stroke-width="1.51" d="M877.93,970.446l-8.42-121.04l-256.814-12.63L877.93,970.446z"/>
<path fill="#F887AB" stroke="#F887AB" stroke-width="1.51" d="M1014.757,1108.326l-96.832-147.353l-39.996,9.473L1014.757,1108.326z
	"/>
<path fill="#F47DA9" stroke="#F47DA9" stroke-width="1.51" d="M917.925,960.974L869.51,849.407l8.42,121.04L917.925,960.974z"/>
<path fill="#F05B9E" stroke="#F05B9E" stroke-width="1.51" d="M581.12,934.661l-122.092,31.576l178.928,144.195L581.12,934.661z"/>
<path fill="#EC539D" stroke="#EC539D" stroke-width="1.51" d="M612.695,836.776l-84.201,19.998l52.626,77.886L612.695,836.776z"/>
<path fill="#EB519D" stroke="#EB519D" stroke-width="1.51" d="M528.494,856.774l-69.466,109.462l122.092-31.576L528.494,856.774z"/>
<path fill="#F37DAA" stroke="#F37DAA" stroke-width="1.51" d="M917.925,960.974l50.521-106.304l-98.937-5.263L917.925,960.974z"/>
<path fill="#ED72A7" stroke="#ED72A7" stroke-width="1.51" d="M1020.02,655.743l-212.609,32.628l62.099,161.035L1020.02,655.743z"/>
<path fill="#EE65A2" stroke="#EE65A2" stroke-width="1.51" d="M869.51,849.407l-62.099-161.035L612.695,836.776L869.51,849.407z"/>
<path fill="#E7499B" stroke="#E7499B" stroke-width="1.51" d="M612.695,836.776l-69.466-248.394l-14.735,268.392L612.695,836.776z"
	/>
<path fill="#F986AB" stroke="#F986AB" stroke-width="1.51" d="M770.573,1115.694l244.184-7.368L877.93,970.446L770.573,1115.694z"/>
<path fill="#F68BAD" stroke="#F68BAD" stroke-width="1.51" d="M917.925,960.974l292.6,34.733L968.446,854.669L917.925,960.974z"/>
<path fill="#F05EA0" stroke="#F05EA0" stroke-width="1.51" d="M459.027,966.236l7.368,252.604l171.56-108.409L459.027,966.236z"/>
<path fill="#F986AB" stroke="#F986AB" stroke-width="1.51" d="M643.218,1375.666l154.72-12.63l-27.365-247.342L643.218,1375.666z"/>
<path fill="#FA92AF" stroke="#FA92AF" stroke-width="1.51" d="M770.573,1115.694l214.714,197.873l29.471-205.241L770.573,1115.694z"
	/>
<path fill="#EA589F" stroke="#EA589F" stroke-width="1.51" d="M807.411,688.371l-111.567-36.838l-83.149,185.243L807.411,688.371z"
	/>
<path fill="#EB559D" stroke="#EB559D" stroke-width="1.51" d="M459.027,966.236l-106.304,169.455l113.672,83.149L459.027,966.236z"
	/>
<path fill="#E34599" stroke="#E34599" stroke-width="1.51" d="M344.303,871.51l7.368,147.353l107.357-52.626L344.303,871.51z"/>
<path fill="#E5469A" stroke="#E5469A" stroke-width="1.51" d="M344.303,871.51l114.724,94.727l69.466-109.462L344.303,871.51z"/>
<path fill="#F979A6" stroke="#F979A6" stroke-width="1.51" d="M643.218,1375.666l127.355-259.972l-132.617-5.263L643.218,1375.666z"
	/>
<path fill="#DD3897" stroke="#DD3897" stroke-width="1.51" d="M304.307,659.953l39.996,211.556l184.191-14.735L304.307,659.953z"/>
<path fill="#DF4A97" stroke="#DF4A97" stroke-width="1.51" d="M195.898,1103.064l156.825,32.628l-1.053-116.83L195.898,1103.064z"/>
<path fill="#E64C9A" stroke="#E64C9A" stroke-width="1.51" d="M351.671,1018.862l1.053,116.83l106.304-169.455L351.671,1018.862z"/>
<path fill="#F272A6" stroke="#F272A6" stroke-width="1.51" d="M484.288,1321.987l158.93,53.678l-176.823-156.825L484.288,1321.987z"
	/>
<path fill="#F571A5" stroke="#F571A5" stroke-width="1.51" d="M466.395,1218.841l176.823,156.825l-5.263-265.235L466.395,1218.841z"
	/>
<path fill="#ED69A4" stroke="#ED69A4" stroke-width="1.51" d="M343.25,1372.508l141.037-50.521l-17.893-103.147L343.25,1372.508z"/>
<path fill="#FA91B0" stroke="#FA91B0" stroke-width="1.51" d="M797.938,1363.036l187.348-49.468l-214.714-197.873L797.938,1363.036z
	"/>
<path fill="#E64B9A" stroke="#E64B9A" stroke-width="1.51" d="M695.844,651.533l-152.615-63.151l69.466,248.394L695.844,651.533z"/>
<path fill="#DB4395" stroke="#DB4395" stroke-width="1.51" d="M597.96,416.822l-54.731,171.56l152.615,63.151L597.96,416.822z"/>
<path fill="#EF7AA9" stroke="#EF7AA9" stroke-width="1.51" d="M968.446,854.669l51.573-198.926L869.51,849.407L968.446,854.669z"/>
<path fill="#E35C9D" stroke="#E35C9D" stroke-width="1.51" d="M807.411,688.371l-9.473-184.191L695.844,651.533L807.411,688.371z"/>
<path fill="#F185AC" stroke="#F185AC" stroke-width="1.51" d="M1217.893,859.932L1020.02,655.743l-51.573,198.926L1217.893,859.932z
	"/>
<path fill="#F67CA9" stroke="#F67CA9" stroke-width="1.51" d="M484.288,1321.987l125.25,123.145l33.681-69.466L484.288,1321.987z"/>
<path fill="#F988AC" stroke="#F988AC" stroke-width="1.51" d="M643.218,1375.666l-33.681,69.466l188.401-82.096L643.218,1375.666z"
	/>
<path fill="#FBADB9" stroke="#FBADB9" stroke-width="1.51" d="M1115.799,1513.546l-19.998-205.241l-110.514,5.263L1115.799,1513.546
	z"/>
<path fill="#E46AA2" stroke="#E46AA2" stroke-width="1.51" d="M1020.02,655.743L797.938,504.181l9.473,184.191L1020.02,655.743z"/>
<path fill="#FBA0B3" stroke="#FBA0B3" stroke-width="1.51" d="M985.287,1313.567l110.514-5.263l-81.044-199.978L985.287,1313.567z"
	/>
<path fill="#F991AE" stroke="#F991AE" stroke-width="1.51" d="M1014.757,1108.326l195.768-112.619l-292.6-34.733L1014.757,1108.326z
	"/>
<path fill="#FA9FB4" stroke="#FA9FB4" stroke-width="1.51" d="M916.873,1460.92l68.414-147.353l-187.348,49.468L916.873,1460.92z"/>
<path fill="#FB9CB3" stroke="#FB9CB3" stroke-width="1.51" d="M1214.735,1132.534l-4.21-136.827l-195.768,112.619L1214.735,1132.534
	z"/>
<path fill="#DA3E95" stroke="#DA3E95" stroke-width="1.51" d="M344.303,871.51l-136.827,86.306l144.195,61.046L344.303,871.51z"/>
<path fill="#EE71A6" stroke="#EE71A6" stroke-width="1.51" d="M343.25,1372.508l158.93,86.307l-17.893-136.827L343.25,1372.508z"/>
<path fill="#D13490" stroke="#D13490" stroke-width="1.51" d="M195.898,775.73l11.578,182.086l136.827-86.306L195.898,775.73z"/>
<path fill="#E860A0" stroke="#E860A0" stroke-width="1.51" d="M343.25,1372.508l123.145-153.668l-113.672-83.149L343.25,1372.508z"
	/>
<path fill="#F37AA9" stroke="#F37AA9" stroke-width="1.51" d="M484.288,1321.987l17.893,136.827l107.357-13.683L484.288,1321.987z"
	/>
<path fill="#FA94B0" stroke="#FA94B0" stroke-width="1.51" d="M862.142,1552.489l-64.204-189.453l-188.401,82.096L862.142,1552.489z
	"/>
<path fill="#FAA0B5" stroke="#FAA0B5" stroke-width="1.51" d="M862.142,1552.489l54.731-91.569l-118.935-97.884L862.142,1552.489z"
	/>
<path fill="#DE3997" stroke="#DE3997" stroke-width="1.51" d="M543.229,588.382l-238.922,71.571l224.186,196.821L543.229,588.382z"
	/>
<path fill="#D22D91" stroke="#D22D91" stroke-width="1.51" d="M452.712,441.03L304.307,659.953l238.922-71.571L452.712,441.03z"/>
<path fill="#F591B0" stroke="#F591B0" stroke-width="1.51" d="M1210.525,995.707l7.368-135.775l-249.447-5.263L1210.525,995.707z"/>
<path fill="#F89AB6" stroke="#F89AB6" stroke-width="1.51" d="M1210.525,995.707l69.466-19.998l-62.099-115.777L1210.525,995.707z"
	/>
<path fill="#FCA2B4" stroke="#FCA2B4" stroke-width="1.51" d="M1095.801,1308.305l118.934-175.771l-199.978-24.208
	L1095.801,1308.305z"/>
<path fill="#D84193" stroke="#D84193" stroke-width="1.51" d="M207.476,957.816l-11.578,145.248l155.773-84.201L207.476,957.816z"/>
<path fill="#DE5B9B" stroke="#DE5B9B" stroke-width="1.51" d="M146.43,1303.042l196.821,69.466l9.473-236.817L146.43,1303.042z"/>
<path fill="#D12D90" stroke="#D12D90" stroke-width="1.51" d="M304.307,659.953L195.898,775.73l148.405,95.779L304.307,659.953z"/>
<path fill="#CA4A92" stroke="#CA4A92" stroke-width="1.51" d="M-33.551,1151.479l179.981,151.563l49.468-199.978L-33.551,1151.479z"
	/>
<path fill="#FB9FB8" stroke="#FB9FB8" stroke-width="1.51" d="M1214.735,1132.534l65.256-156.825l-69.466,19.998L1214.735,1132.534z
	"/>
<path fill="#FBABB9" stroke="#FBABB9" stroke-width="1.51" d="M916.873,1460.92l198.926,52.626l-130.512-199.979L916.873,1460.92z"
	/>
<path fill="#FBA4B5" stroke="#FBA4B5" stroke-width="1.51" d="M878.982,1633.533l-16.84-81.044l-168.403,107.357L878.982,1633.533z"
	/>
<path fill="#DC4E97" stroke="#DC4E97" stroke-width="1.51" d="M797.938,504.181L597.96,416.822l97.884,234.712L797.938,504.181z"/>
<path fill="#DF6BA0" stroke="#DF6BA0" stroke-width="1.51" d="M1020.02,655.743l-62.099-234.712l-159.983,83.149L1020.02,655.743z"
	/>
<path fill="#D54793" stroke="#D54793" stroke-width="1.51" d="M797.938,504.181l-163.14-128.407l-36.838,41.048L797.938,504.181z"/>
<path fill="#ED85AC" stroke="#ED85AC" stroke-width="1.51" d="M1217.893,859.932l-69.466-273.655l-128.407,69.466L1217.893,859.932z
	"/>
<path fill="#EE8AB1" stroke="#EE8AB1" stroke-width="1.51" d="M1295.779,672.584l-147.353-86.306l69.466,273.655L1295.779,672.584z"
	/>
<path fill="#FDA6BD" stroke="#FDA6BD" stroke-width="1.51" d="M1214.735,1132.534l225.239-29.47l-159.983-127.355L1214.735,1132.534
	z"/>
<path fill="#FCA9BA" stroke="#FCA9BA" stroke-width="1.51" d="M1095.801,1308.305l175.771-110.514l-56.836-65.256L1095.801,1308.305
	z"/>
<path fill="#FCB1BF" stroke="#FCB1BF" stroke-width="1.51" d="M1347.353,1339.88l-75.781-142.09l-175.771,110.514L1347.353,1339.88z
	"/>
<path fill="#EA6FA5" stroke="#EA6FA5" stroke-width="1.51" d="M343.25,1372.508l-35.786,67.361l194.716,18.945L343.25,1372.508z"/>
<path fill="#FA96B0" stroke="#FA96B0" stroke-width="1.51" d="M693.739,1659.846l168.403-107.357l-252.604-107.357L693.739,1659.846
	z"/>
<path fill="#DD639D" stroke="#DD639D" stroke-width="1.51" d="M146.43,1303.042l161.035,136.827l35.786-67.361L146.43,1303.042z"/>
<path fill="#D23690" stroke="#D23690" stroke-width="1.51" d="M597.96,416.822L452.712,441.03l90.517,147.353L597.96,416.822z"/>
<path fill="#C7218B" stroke="#C7218B" stroke-width="1.51" d="M304.307,659.953l-171.56,33.681l63.151,82.096L304.307,659.953z"/>
<path fill="#D54D93" stroke="#D54D93" stroke-width="1.51" d="M747.417,342.093l-112.619,33.681l163.14,128.407L747.417,342.093z"/>
<path fill="#CA2E8C" stroke="#CA2E8C" stroke-width="1.51" d="M597.96,416.822L468.5,305.255L452.712,441.03L597.96,416.822z"/>
<path fill="#E277A4" stroke="#E277A4" stroke-width="1.51" d="M1148.427,586.277L957.921,421.032l62.099,234.712L1148.427,586.277z"
	/>
<path fill="#C8238B" stroke="#C8238B" stroke-width="1.51" d="M452.712,441.03l-201.031,99.989l52.626,118.935L452.712,441.03z"/>
<path fill="#CB398E" stroke="#CB398E" stroke-width="1.51" d="M29.6,935.713l166.298,167.35l11.578-145.248L29.6,935.713z"/>
<path fill="#D84F96" stroke="#D84F96" stroke-width="1.51" d="M195.898,1103.064l-49.468,199.978l206.294-167.35L195.898,1103.064z"
	/>
<path fill="#C7308C" stroke="#C7308C" stroke-width="1.51" d="M195.898,775.73L29.6,935.713l177.876,22.103L195.898,775.73z"/>
<path fill="#C31E89" stroke="#C31E89" stroke-width="1.51" d="M251.681,541.019L132.747,693.634l171.56-33.681L251.681,541.019z"/>
<path fill="#D55997" stroke="#D55997" stroke-width="1.51" d="M916.873,349.461l-169.455-7.368l50.521,162.088L916.873,349.461z"/>
<path fill="#FBAEB9" stroke="#FBAEB9" stroke-width="1.51" d="M878.982,1633.533l236.817-119.987l-198.926-52.626L878.982,1633.533z
	"/>
<path fill="#FBA8B8" stroke="#FBA8B8" stroke-width="1.51" d="M862.142,1552.489l16.84,81.044l37.891-172.613L862.142,1552.489z"/>
<path fill="#F98DAD" stroke="#F98DAD" stroke-width="1.51" d="M693.739,1659.846l-84.201-214.714l-65.256,212.609L693.739,1659.846z
	"/>
<path fill="#D36C9D" stroke="#D36C9D" stroke-width="1.51" d="M1178.95,277.889l-262.077,71.571l41.048,71.571L1178.95,277.889z"/>
<path fill="#F293B8" stroke="#F293B8" stroke-width="1.51" d="M1384.191,773.625l-88.411-101.042l-77.886,187.348L1384.191,773.625z
	"/>
<path fill="#F499BB" stroke="#F499BB" stroke-width="1.51" d="M1384.191,773.625l-166.298,86.307l209.451-14.735L1384.191,773.625z"
	/>
<path fill="#F583AB" stroke="#F583AB" stroke-width="1.51" d="M544.281,1657.741l65.256-212.609l-107.357,13.683L544.281,1657.741z"
	/>
<path fill="#D7639B" stroke="#D7639B" stroke-width="1.51" d="M957.921,421.032l-41.048-71.571l-118.935,154.72L957.921,421.032z"/>
<path fill="#E07BA4" stroke="#E07BA4" stroke-width="1.51" d="M1213.683,541.019L957.921,421.032l190.506,165.245L1213.683,541.019z
	"/>
<path fill="#E786AD" stroke="#E786AD" stroke-width="1.51" d="M1295.779,672.584l-82.096-131.565l-65.256,45.258L1295.779,672.584z"
	/>
<path fill="#BD2B8B" stroke="#BD2B8B" stroke-width="1.51" d="M-18.816,857.827L29.6,935.713L195.898,775.73L-18.816,857.827z"/>
<path fill="#F07FAA" stroke="#F07FAA" stroke-width="1.51" d="M329.568,1620.902l214.714,36.838l-42.101-198.926L329.568,1620.902z"
	/>
<path fill="#EA74A6" stroke="#EA74A6" stroke-width="1.51" d="M329.568,1620.902l172.613-162.088l-194.716-18.945L329.568,1620.902z
	"/>
<path fill="#F79BBA" stroke="#F79BBA" stroke-width="1.51" d="M1427.344,845.197l-209.451,14.735l62.099,115.777L1427.344,845.197z"
	/>
<path fill="#E386AE" stroke="#E386AE" stroke-width="1.51" d="M1295.779,672.584l9.473-257.867l-91.569,126.302L1295.779,672.584z"
	/>
<path fill="#FBB6BE" stroke="#FBB6BE" stroke-width="1.51" d="M1115.799,1513.546l151.563-67.361l-171.56-137.88L1115.799,1513.546z
	"/>
<path fill="#F9A1BF" stroke="#F9A1BF" stroke-width="1.51" d="M1508.388,934.661l-81.044-89.464l-147.353,130.512L1508.388,934.661z
	"/>
<path fill="#FCC1C4" stroke="#FCC1C4" stroke-width="1.51" d="M1277.887,1698.789l-10.525-252.604l-151.563,67.361
	L1277.887,1698.789z"/>
<path fill="#BF1A87" stroke="#BF1A87" stroke-width="1.51" d="M452.712,441.03L192.74,464.185l58.941,76.834L452.712,441.03z"/>
<path fill="#CC368D" stroke="#CC368D" stroke-width="1.51" d="M634.798,375.773L468.5,305.255l129.46,111.567L634.798,375.773z"/>
<path fill="#C83A8E" stroke="#C83A8E" stroke-width="1.51" d="M713.737,186.32L468.5,305.255l166.298,70.519L713.737,186.32z"/>
<path fill="#CC4691" stroke="#CC4691" stroke-width="1.51" d="M713.737,186.32l-78.939,189.453l112.619-33.681L713.737,186.32z"/>
<path fill="#FCB7C1" stroke="#FCB7C1" stroke-width="1.51" d="M1267.361,1446.184l79.991-106.304l-251.552-31.576L1267.361,1446.184
	z"/>
<path fill="#FDABBF" stroke="#FDABBF" stroke-width="1.51" d="M1439.974,1103.064l-225.239,29.47l56.836,65.256L1439.974,1103.064z"
	/>
<path fill="#DD6DA0" stroke="#DD6DA0" stroke-width="1.51" d="M136.957,1515.651l192.611,105.252l-22.103-181.033L136.957,1515.651z
	"/>
<path fill="#BE248A" stroke="#BE248A" stroke-width="1.51" d="M132.747,693.634L-18.816,857.827l214.714-82.096L132.747,693.634z"/>
<path fill="#B81785" stroke="#B81785" stroke-width="1.51" d="M251.681,541.019L27.495,590.487l105.252,103.147L251.681,541.019z"/>
<path fill="#BA1484" stroke="#BA1484" stroke-width="1.51" d="M262.207,292.625l-69.466,171.56l259.972-23.155L262.207,292.625z"/>
<path fill="#FDB2C4" stroke="#FDB2C4" stroke-width="1.51" d="M1347.353,1339.88l92.622-236.817l-168.403,94.727L1347.353,1339.88z"
	/>
<path fill="#C43C8E" stroke="#C43C8E" stroke-width="1.51" d="M29.6,935.713l-63.151,215.766l229.449-48.416L29.6,935.713z"/>
<path fill="#B51D88" stroke="#B51D88" stroke-width="1.51" d="M27.495,590.487l-46.311,267.34l151.563-164.193L27.495,590.487z"/>
<path fill="#B6378C" stroke="#B6378C" stroke-width="1.51" d="M-153.538,997.812l119.987,153.668L29.6,935.713L-153.538,997.812z"/>
<path fill="#D6629A" stroke="#D6629A" stroke-width="1.51" d="M146.43,1303.042l-9.473,212.609l170.508-75.781L146.43,1303.042z"/>
<path fill="#FCB4BB" stroke="#FCB4BB" stroke-width="1.51" d="M878.982,1633.533l75.781,76.834l161.035-196.821L878.982,1633.533z"
	/>
<path fill="#FBB1BA" stroke="#FBB1BA" stroke-width="1.51" d="M810.569,1760.887l144.195-50.521l-75.781-76.834L810.569,1760.887z"
	/>
<path fill="#FBA6B6" stroke="#FBA6B6" stroke-width="1.51" d="M810.569,1760.887l68.414-127.355l-185.243,26.313L810.569,1760.887z"
	/>
<path fill="#CA5F99" stroke="#CA5F99" stroke-width="1.51" d="M-8.291,1461.972l145.248,53.678l9.473-212.609L-8.291,1461.972z"/>
<path fill="#FCA3B4" stroke="#FCA3B4" stroke-width="1.51" d="M683.214,1852.457l127.355-91.569l-116.83-101.042L683.214,1852.457z"
	/>
<path fill="#FB98B0" stroke="#FB98B0" stroke-width="1.51" d="M683.214,1852.457l10.525-192.611l-149.458-2.105L683.214,1852.457z"
	/>
<path fill="#B41082" stroke="#B41082" stroke-width="1.51" d="M192.74,464.185L27.495,590.487l224.186-49.468L192.74,464.185z"/>
<path fill="#F49BBE" stroke="#F49BBE" stroke-width="1.51" d="M1427.344,845.197l58.941-130.512l-102.094,58.941L1427.344,845.197z"
	/>
<path fill="#F195BC" stroke="#F195BC" stroke-width="1.51" d="M1384.191,773.625l102.094-58.941l-190.506-42.101L1384.191,773.625z"
	/>
<path fill="#FCA7C0" stroke="#FCA7C0" stroke-width="1.51" d="M1439.974,1103.064l68.414-168.403l-228.396,41.048L1439.974,1103.064
	z"/>
<path fill="#FEB2C6" stroke="#FEB2C6" stroke-width="1.51" d="M1428.397,1350.405l79.991-415.745l-68.414,168.403L1428.397,1350.405
	z"/>
<path fill="#CC5395" stroke="#CC5395" stroke-width="1.51" d="M916.873,349.461L713.737,186.32l33.681,155.773L916.873,349.461z"/>
<path fill="#C55595" stroke="#C55595" stroke-width="1.51" d="M816.884,90.541L713.737,186.32l203.136,163.14L816.884,90.541z"/>
<path fill="#FEB9C8" stroke="#FEB9C8" stroke-width="1.51" d="M1347.353,1339.88l81.044,10.525l11.578-247.342L1347.353,1339.88z"/>
<path fill="#FDC2CB" stroke="#FDC2CB" stroke-width="1.51" d="M1441.027,1486.18l-12.63-135.775l-81.044-10.525L1441.027,1486.18z"
	/>
<path fill="#FDC1CA" stroke="#FDC1CA" stroke-width="1.51" d="M1441.027,1486.18l-93.674-146.3l-79.991,106.304L1441.027,1486.18z"
	/>
<path fill="#F6A0C1" stroke="#F6A0C1" stroke-width="1.51" d="M1508.388,934.661l-22.103-219.976l-58.941,130.512L1508.388,934.661z
	"/>
<path fill="#D977A0" stroke="#D977A0" stroke-width="1.51" d="M1213.683,541.019l-34.733-263.13L957.921,421.032L1213.683,541.019z"
	/>
<path fill="#C01E89" stroke="#C01E89" stroke-width="1.51" d="M468.5,305.255l-206.294-12.63L452.712,441.03L468.5,305.255z"/>
<path fill="#A80B80" stroke="#A80B80" stroke-width="1.51" d="M192.74,464.185L-7.238,434.715l34.733,155.773L192.74,464.185z"/>
<path fill="#B11785" stroke="#B11785" stroke-width="1.51" d="M296.94,77.911l-34.733,214.714l206.294,12.63L296.94,77.911z"/>
<path fill="#E38BB3" stroke="#E38BB3" stroke-width="1.51" d="M1488.39,511.548l-183.138-96.832l-9.473,257.867L1488.39,511.548z"/>
<path fill="#C25093" stroke="#C25093" stroke-width="1.51" d="M-33.551,1151.479l-3.158,207.346l183.138-55.783L-33.551,1151.479z"
	/>
<path fill="#D97DA7" stroke="#D97DA7" stroke-width="1.51" d="M1305.252,414.717L1178.95,277.889l34.733,263.13L1305.252,414.717z"
	/>
<path fill="#EE80AA" stroke="#EE80AA" stroke-width="1.51" d="M329.568,1620.902l7.368,138.932l207.346-102.094L329.568,1620.902z"
	/>
<path fill="#E279A4" stroke="#E279A4" stroke-width="1.51" d="M198.003,1690.369l138.932,69.466l-7.368-138.932L198.003,1690.369z"
	/>
<path fill="#DB709F" stroke="#DB709F" stroke-width="1.51" d="M198.003,1690.369l131.565-69.466l-192.611-105.252L198.003,1690.369z
	"/>
<path fill="#FCBDBE" stroke="#FCBDBE" stroke-width="1.51" d="M954.764,1710.367l213.661,1.052l-52.626-197.873L954.764,1710.367z"
	/>
<path fill="#FCC0BF" stroke="#FCC0BF" stroke-width="1.51" d="M1005.284,1807.198l163.14-95.779l-213.661-1.052L1005.284,1807.198z"
	/>
<path fill="#AE067F" stroke="#AE067F" stroke-width="1.51" d="M262.207,292.625l-66.309,11.578l-3.158,159.983L262.207,292.625z"/>
<path fill="#A4017D" stroke="#A4017D" stroke-width="1.51" d="M103.276,178.953l92.622,125.25l66.309-11.578L103.276,178.953z"/>
<path fill="#C45997" stroke="#C45997" stroke-width="1.51" d="M-36.709,1358.825l28.418,103.147l154.72-158.93L-36.709,1358.825z"/>
<path fill="#FCB7BC" stroke="#FCB7BC" stroke-width="1.51" d="M810.569,1760.887l194.716,46.311l-50.521-96.832L810.569,1760.887z"
	/>
<path fill="#F793B0" stroke="#F793B0" stroke-width="1.51" d="M462.185,1844.036l221.029,8.42l-138.932-194.716L462.185,1844.036z"
	/>
<path fill="#B64A91" stroke="#B64A91" stroke-width="1.51" d="M-33.551,1151.479l-121.04,33.681l117.882,173.665L-33.551,1151.479z"
	/>
<path fill="#B76097" stroke="#B76097" stroke-width="1.51" d="M-212.479,1521.966l187.348,106.304l16.84-166.298L-212.479,1521.966z
	"/>
<path fill="#B2308A" stroke="#B2308A" stroke-width="1.51" d="M-18.816,857.827l-134.722,139.985L29.6,935.713L-18.816,857.827z"/>
<path fill="#A92A88" stroke="#A92A88" stroke-width="1.51" d="M-205.111,802.043l51.573,195.768l134.722-139.985L-205.111,802.043z"
	/>
<path fill="#CE709D" stroke="#CE709D" stroke-width="1.51" d="M130.642,1765.098l67.361-74.729l-223.134-62.099L130.642,1765.098z"
	/>
<path fill="#FCB4BE" stroke="#FCB4BE" stroke-width="1.51" d="M775.835,1936.658l229.449-129.46l-194.716-46.311L775.835,1936.658z"
	/>
<path fill="#D47DA8" stroke="#D47DA8" stroke-width="1.51" d="M1305.252,414.717l-12.63-86.306l-113.672-50.521L1305.252,414.717z"
	/>
<path fill="#D783AD" stroke="#D783AD" stroke-width="1.51" d="M1454.71,369.458l-162.088-41.048l12.63,86.306L1454.71,369.458z"/>
<path fill="#FEBECC" stroke="#FEBECC" stroke-width="1.51" d="M1428.397,1350.405l64.204,244.184l15.788-659.929L1428.397,1350.405z
	"/>
<path fill="#FDC7CA" stroke="#FDC7CA" stroke-width="1.51" d="M1277.887,1698.789l163.14-212.609l-173.666-39.996L1277.887,1698.789
	z"/>
<path fill="#B13D8C" stroke="#B13D8C" stroke-width="1.51" d="M-153.538,997.812l-1.053,187.348l121.04-33.681L-153.538,997.812z"/>
<path fill="#EC87AE" stroke="#EC87AE" stroke-width="1.51" d="M332.725,1941.921l129.46-97.884l-125.25-84.202L332.725,1941.921z"/>
<path fill="#F188AD" stroke="#F188AD" stroke-width="1.51" d="M336.935,1759.835l125.25,84.202l82.096-186.296L336.935,1759.835z"/>
<path fill="#CB6A9C" stroke="#CB6A9C" stroke-width="1.51" d="M1178.95,277.889L958.974,130.537l-42.101,218.924L1178.95,277.889z"
	/>
<path fill="#C66F9D" stroke="#C66F9D" stroke-width="1.51" d="M1155.795,146.325l-196.821-15.788l219.976,147.353L1155.795,146.325z
	"/>
<path fill="#BD328C" stroke="#BD328C" stroke-width="1.51" d="M713.737,186.32L486.393,88.436L468.5,305.255L713.737,186.32z"/>
<path fill="#C55E98" stroke="#C55E98" stroke-width="1.51" d="M958.974,130.537l-142.09-39.996l99.989,258.919L958.974,130.537z"/>
<path fill="#A31F85" stroke="#A31F85" stroke-width="1.51" d="M-227.214,676.794l22.103,125.25l186.296,55.784L-227.214,676.794z"/>
<path fill="#A3037D" stroke="#A3037D" stroke-width="1.51" d="M12.76,375.773l-19.998,58.941l199.978,29.471L12.76,375.773z"/>
<path fill="#FDCAC5" stroke="#FDCAC5" stroke-width="1.51" d="M1145.269,1789.305l132.617-90.517l-109.462,12.63L1145.269,1789.305z
	"/>
<path fill="#FDC4C3" stroke="#FDC4C3" stroke-width="1.51" d="M1168.425,1711.419l109.462-12.63l-162.088-185.243L1168.425,1711.419
	z"/>
<path fill="#FCC6C1" stroke="#FCC6C1" stroke-width="1.51" d="M1005.284,1807.198l139.985-17.893l23.155-77.886L1005.284,1807.198z"
	/>
<path fill="#FDC9C4" stroke="#FDC9C4" stroke-width="1.51" d="M1136.849,1996.651l8.42-207.346l-139.985,17.893L1136.849,1996.651z"
	/>
<path fill="#F29AC0" stroke="#F29AC0" stroke-width="1.51" d="M1508.388,934.661l-19.998-423.112l-2.105,203.136L1508.388,934.661z"
	/>
<path fill="#EB93BA" stroke="#EB93BA" stroke-width="1.51" d="M1486.285,714.684l2.105-203.136l-192.611,161.035L1486.285,714.684z"
	/>
<path fill="#A8017E" stroke="#A8017E" stroke-width="1.51" d="M195.898,304.202L12.76,375.773l179.981,88.412L195.898,304.202z"/>
<path fill="#9D017C" stroke="#9D017C" stroke-width="1.51" d="M195.898,304.202l-92.622-125.25L12.76,375.773L195.898,304.202z"/>
<path fill="#B7338B" stroke="#B7338B" stroke-width="1.51" d="M524.284,9.497l-37.891,78.939l227.344,97.884L524.284,9.497z"/>
<path fill="#990F7F" stroke="#990F7F" stroke-width="1.51" d="M-227.214,676.794l254.709-86.307l-164.193-156.825L-227.214,676.794z
	"/>
<path fill="#A71A86" stroke="#A71A86" stroke-width="1.51" d="M-227.214,676.794l208.399,181.033l46.311-267.34L-227.214,676.794z"
	/>
<path fill="#AB428C" stroke="#AB428C" stroke-width="1.51" d="M-153.538,997.812l-81.044,389.432l79.991-202.083L-153.538,997.812z"
	/>
<path fill="#FCAAB9" stroke="#FCAAB9" stroke-width="1.51" d="M683.214,1852.457l92.622,84.201l34.733-175.771L683.214,1852.457z"/>
<path fill="#FCA5BA" stroke="#FCA5BA" stroke-width="1.51" d="M611.643,1946.131l164.193-9.473l-92.622-84.201L611.643,1946.131z"/>
<path fill="#B95A96" stroke="#B95A96" stroke-width="1.51" d="M958.974,130.537L867.405-69.442L816.884,90.541L958.974,130.537z"/>
<path fill="#C777A4" stroke="#C777A4" stroke-width="1.51" d="M1364.193,120.012l-208.399,26.313l23.155,131.565L1364.193,120.012z"
	/>
<path fill="#CC7CA8" stroke="#CC7CA8" stroke-width="1.51" d="M1364.193,120.012L1178.95,277.889l113.672,50.521L1364.193,120.012z"
	/>
<path fill="#F697B7" stroke="#F697B7" stroke-width="1.51" d="M499.023,2049.277l112.619-103.147l-149.458-102.094L499.023,2049.277
	z"/>
<path fill="#F99AB5" stroke="#F99AB5" stroke-width="1.51" d="M462.185,1844.036l149.458,102.094l71.571-93.674L462.185,1844.036z"
	/>
<path fill="#DB78A1" stroke="#DB78A1" stroke-width="1.51" d="M198.003,1690.369l-67.361,74.729l206.294-5.263L198.003,1690.369z"/>
<path fill="#CD6A9C" stroke="#CD6A9C" stroke-width="1.51" d="M-25.131,1628.27l223.134,62.099l-61.046-174.718L-25.131,1628.27z"/>
<path fill="#C5649A" stroke="#C5649A" stroke-width="1.51" d="M-25.131,1628.27l162.088-112.62l-145.248-53.678L-25.131,1628.27z"/>
<path fill="#DD89B2" stroke="#DD89B2" stroke-width="1.51" d="M1488.39,511.548l-33.681-142.09l-149.458,45.258L1488.39,511.548z"/>
<path fill="#B65A96" stroke="#B65A96" stroke-width="1.51" d="M-212.479,1521.966l204.189-59.994l-28.418-103.147L-212.479,1521.966
	z"/>
<path fill="#A83688" stroke="#A83688" stroke-width="1.51" d="M-205.111,802.043l-29.471,585.2l81.044-389.432L-205.111,802.043z"/>
<path fill="#9B0A7E" stroke="#9B0A7E" stroke-width="1.51" d="M-136.698,433.662L27.495,590.487L-7.238,434.715L-136.698,433.662z"
	/>
<path fill="#FDCDCF" stroke="#FDCDCF" stroke-width="1.51" d="M1277.887,1698.789L1492.6,1594.59l-51.573-108.409L1277.887,1698.789
	z"/>
<path fill="#FEC9CF" stroke="#FEC9CF" stroke-width="1.51" d="M1441.027,1486.18l51.573,108.409l-64.204-244.184L1441.027,1486.18z"
	/>
<path fill="#FDD2CF" stroke="#FDD2CF" stroke-width="1.51" d="M1310.515,1815.618L1492.6,1594.59l-214.714,104.199
	L1310.515,1815.618z"/>
<path fill="#B31E88" stroke="#B31E88" stroke-width="1.51" d="M486.393,88.436L296.94,77.911L468.5,305.255L486.393,88.436z"/>
<path fill="#B5388B" stroke="#B5388B" stroke-width="1.51" d="M657.953-79.967L524.284,9.497L713.737,186.32L657.953-79.967z"/>
<path fill="#B94690" stroke="#B94690" stroke-width="1.51" d="M657.953-79.967l55.783,266.287l103.147-95.779L657.953-79.967z"/>
<path fill="#AC2088" stroke="#AC2088" stroke-width="1.51" d="M524.284,9.497L296.94,77.911l189.453,10.525L524.284,9.497z"/>
<path fill="#96027B" stroke="#96027B" stroke-width="1.51" d="M12.76,375.773l-149.458,57.888l129.46,1.053L12.76,375.773z"/>
<path fill="#8C0079" stroke="#8C0079" stroke-width="1.51" d="M-161.958,256.839l25.26,176.823L12.76,375.773L-161.958,256.839z"/>
<path fill="#A1067E" stroke="#A1067E" stroke-width="1.51" d="M296.94,77.911L103.276,178.953l158.93,113.672L296.94,77.911z"/>
<path fill="#FDCEC9" stroke="#FDCEC9" stroke-width="1.51" d="M1145.269,1789.305l165.245,26.313l-32.628-116.83L1145.269,1789.305z
	"/>
<path fill="#FDD2CE" stroke="#FDD2CE" stroke-width="1.51" d="M1324.197,1936.658l-13.683-121.04l-165.245-26.313L1324.197,1936.658
	z"/>
<path fill="#E07EA7" stroke="#E07EA7" stroke-width="1.51" d="M130.642,1765.098l202.083,176.823l4.21-182.086L130.642,1765.098z"/>
<path fill="#A12D86" stroke="#A12D86" stroke-width="1.51" d="M-227.214,676.794l-7.368,710.45l29.471-585.2L-227.214,676.794z"/>
<path fill="#B04E91" stroke="#B04E91" stroke-width="1.51" d="M-154.591,1185.16l-79.991,202.083l197.873-28.418L-154.591,1185.16z"
	/>
<path fill="#AE5794" stroke="#AE5794" stroke-width="1.51" d="M-234.582,1387.243l22.103,134.722l175.771-163.14L-234.582,1387.243z
	"/>
<path fill="#C56F9C" stroke="#C56F9C" stroke-width="1.51" d="M-25.131,1628.27l-5.263,138.932l161.035-2.105L-25.131,1628.27z"/>
<path fill="#D87CA5" stroke="#D87CA5" stroke-width="1.51" d="M130.642,1765.098l-37.891,184.191l239.974-7.368L130.642,1765.098z"
	/>
<path fill="#BF6C9C" stroke="#BF6C9C" stroke-width="1.51" d="M1155.795,146.325l-19.998-132.617l-176.823,116.83L1155.795,146.325z
	"/>
<path fill="#BD72A1" stroke="#BD72A1" stroke-width="1.51" d="M1291.569,22.127l-155.773-8.42l19.998,132.617L1291.569,22.127z"/>
<path fill="#B34B91" stroke="#B34B91" stroke-width="1.51" d="M867.405-69.442L657.953-79.967l158.93,170.508L867.405-69.442z"/>
<path fill="#A21683" stroke="#A21683" stroke-width="1.51" d="M524.284,9.497l-275.76-49.468L296.94,77.911L524.284,9.497z"/>
<path fill="#B65D97" stroke="#B65D97" stroke-width="1.51" d="M1007.389-74.704l-139.985,5.263l91.569,199.978L1007.389-74.704z"/>
<path fill="#B8699A" stroke="#B8699A" stroke-width="1.51" d="M-206.164,1664.056l175.771,103.147l5.263-138.932L-206.164,1664.056z
	"/>
<path fill="#F297BC" stroke="#F297BC" stroke-width="1.51" d="M470.605,2211.365l28.418-162.088l-190.506,157.878L470.605,2211.365z
	"/>
<path fill="#F18FB4" stroke="#F18FB4" stroke-width="1.51" d="M332.725,1941.921l166.298,107.357l-36.838-205.241L332.725,1941.921z
	"/>
<path fill="#FDBCC7" stroke="#FDBCC7" stroke-width="1.51" d="M814.779,2153.477l122.092-35.786l-161.035-181.033L814.779,2153.477z
	"/>
<path fill="#FDCAC8" stroke="#FDCAC8" stroke-width="1.51" d="M1029.492,2047.172l107.357-50.521l-131.565-189.453
	L1029.492,2047.172z"/>
<path fill="#97027B" stroke="#97027B" stroke-width="1.51" d="M179.058-16.816l-75.781,195.768L296.94,77.911L179.058-16.816z"/>
<path fill="#850178" stroke="#850178" stroke-width="1.51" d="M-83.019,40.02l61.046,146.3l125.25-7.368L-83.019,40.02z"/>
<path fill="#92017A" stroke="#92017A" stroke-width="1.51" d="M103.276,178.953l-125.25,7.368L12.76,375.773L103.276,178.953z"/>
<path fill="#CF82AD" stroke="#CF82AD" stroke-width="1.51" d="M1454.71,369.458l-90.517-249.447l-71.571,208.399L1454.71,369.458z"
	/>
<path fill="#FCBFC4" stroke="#FCBFC4" stroke-width="1.51" d="M1029.492,2047.172l-24.208-239.974l-229.449,129.46
	L1029.492,2047.172z"/>
<path fill="#FCC1C8" stroke="#FCC1C8" stroke-width="1.51" d="M936.871,2117.691l92.622-70.519l-253.657-110.514L936.871,2117.691z"
	/>
<path fill="#B96699" stroke="#B96699" stroke-width="1.51" d="M1135.797,13.707l-128.407-88.412l-48.416,205.241L1135.797,13.707z"
	/>
<path fill="#AE448D" stroke="#AE448D" stroke-width="1.51" d="M867.405-69.442l-183.138-65.256l-26.313,54.731L867.405-69.442z"/>
<path fill="#B36899" stroke="#B36899" stroke-width="1.51" d="M1116.851-132.593l-109.462,57.889l128.407,88.412L1116.851-132.593z"
	/>
<path fill="#9D1C84" stroke="#9D1C84" stroke-width="1.51" d="M419.032-261l-72.624,65.256L524.284,9.497L419.032-261z"/>
<path fill="#AC4B8F" stroke="#AC4B8F" stroke-width="1.51" d="M837.934-173.641l-153.668,38.943l183.138,65.256L837.934-173.641z"/>
<path fill="#9D1682" stroke="#9D1682" stroke-width="1.51" d="M346.408-195.744L248.524-39.971l275.76,49.468L346.408-195.744z"/>
<path fill="#FDD7D3" stroke="#FDD7D3" stroke-width="1.51" d="M1218.946,2108.219l105.252-171.561l-187.348,59.994
	L1218.946,2108.219z"/>
<path fill="#FDD1CD" stroke="#FDD1CD" stroke-width="1.51" d="M1136.849,1996.651l187.348-59.994l-178.928-147.353
	L1136.849,1996.651z"/>
<path fill="#FED8D3" stroke="#FED8D3" stroke-width="1.51" d="M1310.515,1815.618l241.027-16.84L1492.6,1594.59L1310.515,1815.618z"
	/>
<path fill="#C078A6" stroke="#C078A6" stroke-width="1.51" d="M1364.193,120.012l-72.624-97.884l-135.775,124.197L1364.193,120.012z
	"/>
<path fill="#A96295" stroke="#A96295" stroke-width="1.51" d="M-249.317,1797.726l43.153-133.67l-6.315-142.09L-249.317,1797.726z"
	/>
<path fill="#B06297" stroke="#B06297" stroke-width="1.51" d="M-212.479,1521.966l6.315,142.09l181.033-35.786L-212.479,1521.966z"
	/>
<path fill="#97087D" stroke="#97087D" stroke-width="1.51" d="M248.524-39.971l-69.466,23.155L296.94,77.911L248.524-39.971z"/>
<path fill="#8A017A" stroke="#8A017A" stroke-width="1.51" d="M-21.973,186.32l-139.985,70.519L12.76,375.773L-21.973,186.32z"/>
<path fill="#8B0479" stroke="#8B0479" stroke-width="1.51" d="M-136.698,433.662l-25.26-176.823l-65.256,419.955L-136.698,433.662z"
	/>
<path fill="#7E0077" stroke="#7E0077" stroke-width="1.51" d="M-173.536,166.322l11.578,90.517l139.985-70.519L-173.536,166.322z"/>
<path fill="#C175A3" stroke="#C175A3" stroke-width="1.51" d="M-87.229,1985.074l179.981-35.786l-123.145-182.086L-87.229,1985.074z
	"/>
<path fill="#C975A1" stroke="#C975A1" stroke-width="1.51" d="M-30.393,1767.203l123.145,182.086l37.891-184.191L-30.393,1767.203z"
	/>
<path fill="#FDD3CE" stroke="#FDD3CE" stroke-width="1.51" d="M1029.492,2047.172l189.453,61.046l-82.096-111.567L1029.492,2047.172
	z"/>
<path fill="#FDB2C3" stroke="#FDB2C3" stroke-width="1.51" d="M814.779,2153.477l-38.943-216.819l-133.67,254.709L814.779,2153.477z
	"/>
<path fill="#BE7EAC" stroke="#BE7EAC" stroke-width="1.51" d="M1364.193,120.012l182.086-89.464l-254.709-8.42L1364.193,120.012z"/>
<path fill="#CB84AF" stroke="#CB84AF" stroke-width="1.51" d="M1454.71,369.458l37.891-227.344l-128.407-22.103L1454.71,369.458z"/>
<path fill="#D689B2" stroke="#D689B2" stroke-width="1.51" d="M1488.39,511.548l4.21-369.434l-37.891,227.344L1488.39,511.548z"/>
<path fill="#CD88B3" stroke="#CD88B3" stroke-width="1.51" d="M1546.279,30.548L1492.6,142.114l-4.21,369.434L1546.279,30.548z"/>
<path fill="#FECBD2" stroke="#FECBD2" stroke-width="1.51" d="M1492.6,1594.59l58.941,204.188l-43.153-864.117L1492.6,1594.59z"/>
<path fill="#E291B8" stroke="#E291B8" stroke-width="1.51" d="M1508.388,934.661l37.891-904.113l-57.888,481.001L1508.388,934.661z"
	/>
<path fill="#FED9D5" stroke="#FED9D5" stroke-width="1.51" d="M1324.197,1936.658l227.344-137.88l-241.027,16.84L1324.197,1936.658z
	"/>
<path fill="#FDA8BE" stroke="#FDA8BE" stroke-width="1.51" d="M642.166,2191.367l133.67-254.709l-164.193,9.473L642.166,2191.367z"
	/>
<path fill="#FAA1BD" stroke="#FAA1BD" stroke-width="1.51" d="M642.166,2191.367l-30.523-245.237l-112.619,103.147L642.166,2191.367
	z"/>
<path fill="#A52B86" stroke="#A52B86" stroke-width="1.51" d="M419.032-261L524.284,9.497l133.67-89.464L419.032-261z"/>
<path fill="#AE5894" stroke="#AE5894" stroke-width="1.51" d="M1007.389-74.704l-169.455-98.937l29.471,104.199L1007.389-74.704z"/>
<path fill="#AA5A94" stroke="#AA5A94" stroke-width="1.51" d="M986.339-237.845l-148.405,64.204l169.455,98.937L986.339-237.845z"/>
<path fill="#B66F9F" stroke="#B66F9F" stroke-width="1.51" d="M1291.569,22.127l-174.718-154.72l18.945,146.3L1291.569,22.127z"/>
<path fill="#B171A1" stroke="#B171A1" stroke-width="1.51" d="M1307.357-187.324l-190.506,54.731l174.718,154.72L1307.357-187.324z"
	/>
<path fill="#F8A0BE" stroke="#F8A0BE" stroke-width="1.51" d="M470.605,2211.365l171.56-19.998l-143.142-142.09L470.605,2211.365z"
	/>
<path fill="#7C0075" stroke="#7C0075" stroke-width="1.51" d="M-161.958,256.839l-93.674-272.602l28.418,692.557L-161.958,256.839z"
	/>
<path fill="#7B0077" stroke="#7B0077" stroke-width="1.51" d="M-83.019,40.02l-90.517,126.302l151.563,19.998L-83.019,40.02z"/>
<path fill="#FEDEDA" stroke="#FEDEDA" stroke-width="1.51" d="M1324.197,1936.658l111.567,82.096l115.777-219.976L1324.197,1936.658
	z"/>
<path fill="#FDD4D0" stroke="#FDD4D0" stroke-width="1.51" d="M1021.072,2306.092l197.873-197.873l-189.453-61.046
	L1021.072,2306.092z"/>
<path fill="#FDCCCE" stroke="#FDCCCE" stroke-width="1.51" d="M1021.072,2306.092l8.42-258.919l-92.622,70.519L1021.072,2306.092z"
	/>
<path fill="#FEC0CB" stroke="#FEC0CB" stroke-width="1.51" d="M787.413,2277.674l149.458-159.983l-122.092,35.786L787.413,2277.674z
	"/>
<path fill="#7F0077" stroke="#7F0077" stroke-width="1.51" d="M94.856-158.906L-83.019,40.02l262.077-56.836L94.856-158.906z"/>
<path fill="#880079" stroke="#880079" stroke-width="1.51" d="M179.058-16.816L-83.019,40.02l186.296,138.932L179.058-16.816z"/>
<path fill="#8A0078" stroke="#8A0078" stroke-width="1.51" d="M248.524-39.971L94.856-158.906l84.201,142.09L248.524-39.971z"/>
<path fill="#A53087" stroke="#A53087" stroke-width="1.51" d="M419.032-261L657.953-79.967l26.313-54.731L419.032-261z"/>
<path fill="#EE90B7" stroke="#EE90B7" stroke-width="1.51" d="M308.517,2207.155l190.506-157.878l-166.298-107.357L308.517,2207.155
	z"/>
<path fill="#AF6999" stroke="#AF6999" stroke-width="1.51" d="M-206.164,1664.056l-43.153,133.67l218.924-30.523L-206.164,1664.056z
	"/>
<path fill="#DF85AF" stroke="#DF85AF" stroke-width="1.51" d="M92.751,1949.288l215.766,257.867l24.208-265.234L92.751,1949.288z"/>
<path fill="#A75D94" stroke="#A75D94" stroke-width="1.51" d="M-234.582,1387.243l-14.735,410.482l36.838-275.76L-234.582,1387.243z
	"/>
<path fill="#A33487" stroke="#A33487" stroke-width="1.51" d="M-255.632-15.763l6.315,1813.489l14.735-410.482L-255.632-15.763z"/>
<path fill="#AC6296" stroke="#AC6296" stroke-width="1.51" d="M1116.851-132.593L986.339-237.845l21.05,163.14L1116.851-132.593z"/>
<path fill="#A63687" stroke="#A63687" stroke-width="1.51" d="M837.934-173.641L419.032-261l265.235,126.302L837.934-173.641z"/>
<path fill="#AA6999" stroke="#AA6999" stroke-width="1.51" d="M1307.357-187.324l-321.018-50.521l130.512,105.252L1307.357-187.324z
	"/>
<path fill="#FDDDD9" stroke="#FDDDD9" stroke-width="1.51" d="M1218.946,2108.219l216.819-89.464l-111.567-82.096L1218.946,2108.219
	z"/>
<path fill="#C182B0" stroke="#C182B0" stroke-width="1.51" d="M1492.6,142.114l53.678-111.567l-182.086,89.464L1492.6,142.114z"/>
<path fill="#FAA8C5" stroke="#FAA8C5" stroke-width="1.51" d="M1551.541,1798.778l-5.263-1768.231l-37.891,904.113
	L1551.541,1798.778z"/>
<path fill="#B56F9E" stroke="#B56F9E" stroke-width="1.51" d="M-249.317,1797.726l162.088,187.348l56.836-217.871L-249.317,1797.726
	z"/>
<path fill="#D885AE" stroke="#D885AE" stroke-width="1.51" d="M121.169,2220.838l187.348-13.683L92.751,1949.288L121.169,2220.838z"
	/>
<path fill="#8B057A" stroke="#8B057A" stroke-width="1.51" d="M346.408-195.744L94.856-158.906L248.524-39.971L346.408-195.744z"/>
<path fill="#A4438B" stroke="#A4438B" stroke-width="1.51" d="M986.339-237.845L419.032-261l418.902,87.359L986.339-237.845z"/>
<path fill="#FEB6C7" stroke="#FEB6C7" stroke-width="1.51" d="M642.166,2191.367l145.247,86.306l27.365-124.197L642.166,2191.367z"
	/>
<path fill="#FFB4C7" stroke="#FFB4C7" stroke-width="1.51" d="M662.163,2369.243l125.25-91.569l-145.247-86.306L662.163,2369.243z"
	/>
<path fill="#F9A3C1" stroke="#F9A3C1" stroke-width="1.51" d="M500.076,2293.462l142.09-102.094l-171.56,19.998L500.076,2293.462z"
	/>
<path fill="#7D0075" stroke="#7D0075" stroke-width="1.51" d="M-23.026-233.635l117.882,74.729l251.552-36.838L-23.026-233.635z"/>
<path fill="#F39ABF" stroke="#F39ABF" stroke-width="1.51" d="M308.517,2207.155l191.558,86.307l-29.471-82.096L308.517,2207.155z"
	/>
<path fill="#B57AAA" stroke="#B57AAA" stroke-width="1.51" d="M1546.279,30.548l-238.922-217.871l-15.788,209.451L1546.279,30.548z"
	/>
<path fill="#C079A7" stroke="#C079A7" stroke-width="1.51" d="M-87.229,1985.074l7.368,111.567l172.613-147.352L-87.229,1985.074z"
	/>
<path fill="#EF99BE" stroke="#EF99BE" stroke-width="1.51" d="M308.517,2207.155l28.418,185.243l163.14-98.937L308.517,2207.155z"/>
<path fill="#AF70A0" stroke="#AF70A0" stroke-width="1.51" d="M-249.317,1797.726l45.258,189.453l116.83-2.105L-249.317,1797.726z"
	/>
<path fill="#FDE1DD" stroke="#FDE1DD" stroke-width="1.51" d="M1218.946,2108.219l125.25,105.252l91.569-194.716L1218.946,2108.219z
	"/>
<path fill="#FDC8CF" stroke="#FDC8CF" stroke-width="1.51" d="M787.413,2277.674l233.659,28.418l-84.201-188.401L787.413,2277.674z"
	/>
<path fill="#FFC2CE" stroke="#FFC2CE" stroke-width="1.51" d="M662.163,2369.243l358.909-63.151l-233.659-28.418L662.163,2369.243z"
	/>
<path fill="#B576A5" stroke="#B576A5" stroke-width="1.51" d="M-204.059,1987.179l124.197,109.462l-7.368-111.567L-204.059,1987.179
	z"/>
<path fill="#C87FAB" stroke="#C87FAB" stroke-width="1.51" d="M-79.862,2096.641l201.031,124.197l-28.418-271.55L-79.862,2096.641z"
	/>
<path fill="#FEDFDB" stroke="#FEDFDB" stroke-width="1.51" d="M1184.213,2331.352l159.983-117.882l-125.25-105.252
	L1184.213,2331.352z"/>
<path fill="#FEE4E0" stroke="#FEE4E0" stroke-width="1.51" d="M1435.764,2018.754l15.788,209.451l99.989-429.427L1435.764,2018.754z
	"/>
<path fill="#FCAAC4" stroke="#FCAAC4" stroke-width="1.51" d="M500.076,2293.462l162.088,75.781l-19.998-177.875L500.076,2293.462z"
	/>
<path fill="#F8A4C4" stroke="#F8A4C4" stroke-width="1.51" d="M336.935,2392.398l325.228-23.156l-162.088-75.781L336.935,2392.398z"
	/>
<path fill="#6E0073" stroke="#6E0073" stroke-width="1.51" d="M-83.019,40.02l-172.613-55.783l82.096,182.086L-83.019,40.02z"/>
<path fill="#710074" stroke="#710074" stroke-width="1.51" d="M-173.536,166.322l-82.096-182.086l93.674,272.602L-173.536,166.322z"
	/>
<path fill="#941580" stroke="#941580" stroke-width="1.51" d="M-227.214,676.794l-28.418-692.557l21.05,1403.007L-227.214,676.794z"
	/>
<path fill="#630070" stroke="#630070" stroke-width="1.51" d="M-263-150.486l7.368,134.722L-83.019,40.02L-263-150.486z"/>
<path fill="#FDDAD6" stroke="#FDDAD6" stroke-width="1.51" d="M1021.072,2306.092l163.14,25.26l34.733-223.134L1021.072,2306.092z"
	/>
<path fill="#FEDFDB" stroke="#FEDFDB" stroke-width="1.51" d="M1327.355,2383.978l-143.142-52.626l-163.14-25.26L1327.355,2383.978z
	"/>
<path fill="#B377A7" stroke="#B377A7" stroke-width="1.51" d="M-204.059,1987.179l71.571,152.615l52.626-43.153L-204.059,1987.179z"
	/>
<path fill="#C381AE" stroke="#C381AE" stroke-width="1.51" d="M-79.862,2096.641l23.155,230.501l177.876-106.304L-79.862,2096.641z"
	/>
<path fill="#730074" stroke="#730074" stroke-width="1.51" d="M94.856-158.906l-117.882-74.729L-83.019,40.02L94.856-158.906z"/>
<path fill="#860679" stroke="#860679" stroke-width="1.51" d="M419.032-261l-442.058,27.365l369.434,37.891L419.032-261z"/>
<path fill="#FEE9E5" stroke="#FEE9E5" stroke-width="1.51" d="M1431.554,2277.674l19.998-49.468l-107.357-14.735L1431.554,2277.674z
	"/>
<path fill="#FEE6E3" stroke="#FEE6E3" stroke-width="1.51" d="M1344.195,2213.47l107.357,14.735l-15.788-209.451L1344.195,2213.47z"
	/>
<path fill="#DB8DB5" stroke="#DB8DB5" stroke-width="1.51" d="M90.646,2395.556l246.289-3.157l-215.766-171.561L90.646,2395.556z"/>
<path fill="#E28FB7" stroke="#E28FB7" stroke-width="1.51" d="M121.169,2220.838l215.766,171.561l-28.418-185.243L121.169,2220.838z
	"/>
<path fill="#A971A1" stroke="#A971A1" stroke-width="1.51" d="M1307.357-187.324l247.342-5.263l-568.36-45.258L1307.357-187.324z"/>
<path fill="#B17DAC" stroke="#B17DAC" stroke-width="1.51" d="M1546.279,30.548l8.42-223.134l-247.342,5.263L1546.279,30.548z"/>
<path fill="#E695BC" stroke="#E695BC" stroke-width="1.51" d="M1551.541,1798.778l3.157-1991.364l-8.42,223.134L1551.541,1798.778z"
	/>
<path fill="#FEE9E5" stroke="#FEE9E5" stroke-width="1.51" d="M1327.355,2383.978l104.199-106.304l-87.359-64.204L1327.355,2383.978
	z"/>
<path fill="#890A7A" stroke="#890A7A" stroke-width="1.51" d="M-255.632-15.763L-263-150.486l13.683,1948.211L-255.632-15.763z"/>
<path fill="#660071" stroke="#660071" stroke-width="1.51" d="M-23.026-233.635L-263-150.486L-83.019,40.02L-23.026-233.635z"/>
<path fill="#FEE4E1" stroke="#FEE4E1" stroke-width="1.51" d="M1184.213,2331.352l143.142,52.626l16.84-170.508L1184.213,2331.352z"
	/>
<path fill="#FED4D5" stroke="#FED4D5" stroke-width="1.51" d="M662.163,2369.243l665.192,14.735l-306.283-77.886L662.163,2369.243z"
	/>
<path fill="#FFC0CE" stroke="#FFC0CE" stroke-width="1.51" d="M336.935,2392.398l990.42-8.42l-665.192-14.735L336.935,2392.398z"/>
<path fill="#FCADC7" stroke="#FCADC7" stroke-width="1.51" d="M336.935,2392.398l-246.289,3.157l1236.709-11.578L336.935,2392.398z"
	/>
<path fill="#CB87B2" stroke="#CB87B2" stroke-width="1.51" d="M-56.706,2327.142l147.353,68.414l30.523-174.718L-56.706,2327.142z"
	/>
<path fill="#B97DAC" stroke="#B97DAC" stroke-width="1.51" d="M-132.488,2139.794l75.781,187.348l-23.155-230.501L-132.488,2139.794
	z"/>
<path fill="#B57EAD" stroke="#B57EAD" stroke-width="1.51" d="M-201.954,2314.512l145.248,12.63l-75.781-187.348L-201.954,2314.512z
	"/>
<path fill="#BE83B2" stroke="#BE83B2" stroke-width="1.51" d="M-56.706,2327.142l-145.248-12.63l292.6,81.044L-56.706,2327.142z"/>
<path fill="#AF78A8" stroke="#AF78A8" stroke-width="1.51" d="M-204.059,1987.179l2.105,327.333l69.466-174.718L-204.059,1987.179z"
	/>
<path fill="#AA72A3" stroke="#AA72A3" stroke-width="1.51" d="M-249.317,1797.726l47.363,516.786l-2.105-327.333L-249.317,1797.726z
	"/>
</svg>
