<?xml version="1.0" encoding="utf-8"?>
<!-- Generator: Adobe Illustrator 17.0.0, SVG Export Plug-In . SVG Version: 6.00 Build 0)  -->
<!DOCTYPE svg PUBLIC "-//W3C//DTD SVG 1.1//EN" "http://www.w3.org/Graphics/SVG/1.1/DTD/svg11.dtd">
<svg version="1.1" id="Capa_1" xmlns="http://www.w3.org/2000/svg" xmlns:xlink="http://www.w3.org/1999/xlink" x="0px" y="0px"
	 width="314.059px" height="157.034px" viewBox="0 0 314.059 157.034" enable-background="new 0 0 314.059 157.034"
	 xml:space="preserve">
<g>
	<path fill="#F7EAF6" d="M168.132,71.116c-3.066-3.07-7.077-4.599-11.097-4.599c-4.018,0-8.031,1.529-11.101,4.599l-44.409,44.406
		c-6.133,6.128-6.133,16.078,0,22.206v-0.009c6.129,6.132,16.076,6.132,22.201,0l33.308-33.299l33.298,33.299
		c6.135,6.132,16.077,6.132,22.201,0v0.009c6.135-6.128,6.135-16.078,0-22.206L168.132,71.116z"/>
	<path fill="#F7EAF6" d="M31.41,157.034c0.042-43.368,22.56-85.532,62.814-108.773c60.071-34.69,136.894-14.106,171.578,45.971
		c11.442,19.818,16.865,41.456,16.845,62.802h31.412c0.026-26.685-6.755-53.733-21.061-78.503
		C249.641,3.436,153.614-22.295,78.524,21.061C28.2,50.111,0.049,102.821,0,157.034H31.41z"/>
</g>
</svg>
