<?xml version="1.0" encoding="utf-8"?>
<!-- Generator: Adobe Illustrator 17.0.0, SVG Export Plug-In . SVG Version: 6.00 Build 0)  -->
<!DOCTYPE svg PUBLIC "-//W3C//DTD SVG 1.1//EN" "http://www.w3.org/Graphics/SVG/1.1/DTD/svg11.dtd">
<svg version="1.1" id="Layer_1" xmlns="http://www.w3.org/2000/svg" xmlns:xlink="http://www.w3.org/1999/xlink" x="0px" y="0px"
	 width="512px" height="512px" viewBox="0 0 512 512" enable-background="new 0 0 512 512" xml:space="preserve">
<g>
	<path fill="#B11785" d="M0,185.688c0,49.61,19.32,96.25,54.399,131.331c36.208,36.207,83.769,54.311,131.331,54.311
		c43.448,0,86.889-15.117,121.682-45.331l22.126,22.126l-22.542,22.542c-2.47,2.47-3.858,5.821-3.858,9.314s1.388,6.844,3.858,9.314
		l105.612,105.61c10.996,10.996,25.619,17.053,41.17,17.053s30.173-6.057,41.17-17.054C505.943,483.906,512,469.285,512,453.733
		c0-15.553-6.057-30.174-17.056-41.17l-105.61-105.612c-2.47-2.47-5.821-3.858-9.314-3.858s-6.844,1.388-9.314,3.858l-22.542,22.542
		l-22.119-22.119c29.374-33.771,45.413-76.496,45.413-121.689c0-49.61-19.319-96.251-54.399-131.331
		c-72.416-72.416-190.244-72.416-262.661,0C19.318,89.434,0,136.074,0,185.688z M372.3,417.34l45.084-45.084l58.934,58.934
		c6.021,6.021,9.338,14.027,9.338,22.542s-3.317,16.521-9.337,22.54c-6.021,6.021-14.027,9.338-22.542,9.338
		c-8.516,0-16.521-3.315-22.542-9.337L372.3,417.34z M334.936,379.978l45.084-45.085l18.734,18.734l-45.084,45.084L334.936,379.978z
		 M26.343,185.685c0-42.573,16.579-82.598,46.683-112.701c31.072-31.074,71.888-46.609,112.702-46.609
		c40.816,0,81.63,15.537,112.702,46.609c30.104,30.103,46.683,70.127,46.683,112.701s-16.579,82.598-46.683,112.702
		c-62.144,62.146-163.259,62.146-225.403,0C42.923,268.284,26.343,228.258,26.343,185.685z"/>
	<path fill="#B11785" d="M94.764,276.647v0.001c25.079,25.077,58.021,37.617,90.964,37.617s65.884-12.54,90.963-37.617
		c50.158-50.158,50.158-131.769,0.001-181.927c-50.158-50.158-131.769-50.156-181.927,0
		C44.609,144.879,44.609,226.49,94.764,276.647z M113.395,113.351c19.94-19.94,46.141-29.914,72.334-29.914
		c26.2,0,52.39,9.969,72.336,29.914c39.884,39.886,39.884,104.784-0.001,144.67c-39.886,39.884-104.783,39.884-144.669-0.001
		S73.509,153.235,113.395,113.351z"/>
	<path fill="#B11785" d="M234.778,136.635c5.144,5.144,5.144,13.484,0,18.63c-5.144,5.144-13.484,5.144-18.63,0
		c-16.772-16.774-44.068-16.774-60.842,0c-2.573,2.573-5.943,3.858-9.314,3.858s-6.743-1.286-9.314-3.858
		c-5.144-5.144-5.144-13.484,0-18.63C163.727,109.59,207.731,109.59,234.778,136.635z"/>
</g>
</svg>
